<svg width="24" height="22" viewBox="0 0 24 22" fill="none" xmlns="http://www.w3.org/2000/svg">
<path d="M18.626 21C16.9857 21 15.4952 20.1385 14.7402 18.7502L8.60235 7.45181L2.58166 17.5231C2.30829 17.9755 2.3148 18.5147 2.58817 18.9672C2.86154 19.4196 3.35622 19.6861 3.89645 19.6861H9.084V21H3.90296C2.86154 21 1.92427 20.4856 1.39705 19.6303C0.869838 18.7688 0.869838 17.7462 1.38404 16.8785L10.0343 2.39448C10.555 1.52061 11.4988 1 12.5532 1C13.6076 1 14.5514 1.52681 15.0721 2.40068L22.4271 14.7837C23.2017 16.0852 23.1887 17.6346 22.4011 18.93C21.607 20.2253 20.1946 20.9938 18.626 20.9938V21ZM9.41595 6.08832L15.9638 18.1429C16.478 19.0911 17.4999 19.6799 18.6195 19.6799C19.739 19.6799 20.6632 19.1531 21.2035 18.2668C21.7437 17.3805 21.7502 16.3207 21.223 15.4283L13.8745 3.04524C13.6011 2.58661 13.1065 2.31391 12.5532 2.31391C12 2.31391 11.5053 2.58661 11.2319 3.04524L9.41595 6.08832Z" fill="#280F44" stroke="#280F44" stroke-miterlimit="10"/>
<path d="M9.08391 21C7.61291 21 6.41528 19.8596 6.41528 18.4589C6.41528 17.0583 7.61291 15.9179 9.08391 15.9179C10.5549 15.9179 11.7525 17.0583 11.7525 18.4589C11.7525 19.8596 10.5549 21 9.08391 21ZM9.08391 17.2318C8.37445 17.2318 7.79516 17.7834 7.79516 18.4589C7.79516 19.1345 8.37445 19.6861 9.08391 19.6861C9.79337 19.6861 10.3727 19.1345 10.3727 18.4589C10.3727 17.7834 9.79337 17.2318 9.08391 17.2318Z" fill="#9C0C35" stroke="#9C0C35" stroke-miterlimit="10"/>
</svg>
