<svg width="36" height="34" viewBox="0 0 36 34" fill="none" xmlns="http://www.w3.org/2000/svg">
<path d="M28.1751 33.3833C25.6463 33.3833 23.3482 31.9885 22.1842 29.7406L12.721 11.4466L3.43856 27.7536C3.01708 28.4862 3.02712 29.3593 3.44859 30.0918C3.87007 30.8244 4.63274 31.2559 5.46565 31.2559H13.4636V33.3833H5.47569C3.87007 33.3833 2.42501 32.5504 1.61217 31.1656C0.799321 29.7707 0.799321 28.1149 1.5921 26.71L14.9288 3.2579C15.7316 1.84295 17.1867 1 18.8124 1C20.4381 1 21.8932 1.85299 22.696 3.26794L34.0356 23.3181C35.2298 25.4255 35.2098 27.9343 33.9955 30.0316C32.7712 32.129 30.5936 33.3733 28.1751 33.3733V33.3833ZM13.9754 9.23884L24.0708 28.7571C24.8635 30.2925 26.4391 31.2459 28.1651 31.2459C29.8911 31.2459 31.3161 30.3929 32.149 28.9579C32.982 27.5228 32.992 25.8068 32.1792 24.3618L20.8495 4.31159C20.428 3.56899 19.6654 3.12745 18.8124 3.12745C17.9594 3.12745 17.1967 3.56899 16.7752 4.31159L13.9754 9.23884Z" fill="white" stroke="white" stroke-miterlimit="10"/>
<path d="M13.4636 33.3833C11.1957 33.3833 9.34924 31.5369 9.34924 29.2689C9.34924 27.001 11.1957 25.1545 13.4636 25.1545C15.7316 25.1545 17.578 27.001 17.578 29.2689C17.578 31.5369 15.7316 33.3833 13.4636 33.3833ZM13.4636 27.282C12.3698 27.282 11.4767 28.1751 11.4767 29.2689C11.4767 30.3628 12.3698 31.2559 13.4636 31.2559C14.5575 31.2559 15.4506 30.3628 15.4506 29.2689C15.4506 28.1751 14.5575 27.282 13.4636 27.282Z" fill="white" stroke="white" stroke-miterlimit="10"/>
</svg>
