<?xml version="1.0" encoding="utf-8"?>
<!-- Generator: Adobe Illustrator 27.0.0, SVG Export Plug-In . SVG Version: 6.00 Build 0)  -->
<svg version="1.1" id="Capa_2_00000060711171515865145660000010120696697039683749_"
	 xmlns="http://www.w3.org/2000/svg" xmlns:xlink="http://www.w3.org/1999/xlink" x="0px" y="0px" viewBox="0 0 141.3 33.3"
	 style="enable-background:new 0 0 141.3 33.3;" xml:space="preserve">
<style type="text/css">
	.st0{fill:#280F44;}
	.st1{fill:#280F44;stroke:#280F44;stroke-miterlimit:10;}
	.st2{fill:#9C0C35;stroke:#9C0C35;stroke-miterlimit:10;}
</style>
<g id="Capa_1-2">
	<g>
		<path class="st0" d="M60.7,16.9H48c0.1,1.2,0.5,2.2,1.3,3c0.8,0.7,1.7,1.1,2.8,1.1c1.6,0,2.8-0.7,3.5-2.1h4.7
			c-0.5,1.7-1.5,3-2.9,4.1c-1.4,1.1-3.2,1.6-5.2,1.6c-1.7,0-3.2-0.4-4.5-1.1s-2.4-1.8-3.1-3.1c-0.7-1.4-1.1-2.9-1.1-4.7
			s0.4-3.4,1.1-4.7c0.7-1.4,1.8-2.4,3.1-3.1c1.3-0.7,2.8-1.1,4.5-1.1s3.1,0.4,4.4,1.1c1.3,0.7,2.3,1.7,3,3s1.1,2.8,1.1,4.5
			C60.8,15.9,60.8,16.5,60.7,16.9L60.7,16.9z M56.3,14c0-1.1-0.4-2-1.2-2.7s-1.8-1-2.9-1c-1.1,0-2,0.3-2.7,1s-1.2,1.6-1.4,2.7
			L56.3,14L56.3,14z"/>
		<path class="st0" d="M69.5,7.5c1-0.5,2.1-0.8,3.4-0.8c1.5,0,2.8,0.4,4,1.1s2.2,1.8,2.8,3.1s1.1,2.9,1.1,4.7s-0.3,3.3-1.1,4.7
			s-1.7,2.4-2.8,3.2s-2.6,1.1-4,1.1c-1.3,0-2.4-0.3-3.4-0.8s-1.8-1.2-2.4-2v10.8h-4.4V6.9h4.4v2.5C67.7,8.7,68.5,8,69.5,7.5
			L69.5,7.5z M75.7,12.8c-0.4-0.8-1-1.3-1.7-1.7s-1.5-0.6-2.3-0.6s-1.5,0.2-2.2,0.6s-1.3,1-1.7,1.8c-0.4,0.8-0.6,1.7-0.6,2.7
			s0.2,1.9,0.6,2.7c0.4,0.8,1,1.4,1.7,1.8c0.7,0.4,1.4,0.6,2.2,0.6s1.6-0.2,2.3-0.6s1.3-1,1.7-1.8s0.6-1.7,0.6-2.8
			S76.1,13.6,75.7,12.8z"/>
		<path class="st0" d="M87.2,1.1v23.2h-4.4V1.1H87.2z"/>
		<path class="st0" d="M106.3,16.9H93.6c0.1,1.2,0.5,2.2,1.3,3c0.8,0.7,1.7,1.1,2.8,1.1c1.6,0,2.8-0.7,3.5-2.1h4.7
			c-0.5,1.7-1.5,3-2.9,4.1c-1.4,1.1-3.2,1.6-5.2,1.6c-1.7,0-3.2-0.4-4.5-1.1s-2.4-1.8-3.1-3.1s-1.1-2.9-1.1-4.7s0.4-3.4,1.1-4.7
			C91,9.6,92,8.5,93.3,7.8c1.3-0.7,2.8-1.1,4.6-1.1s3.1,0.4,4.4,1.1c1.3,0.7,2.3,1.7,3,3s1.1,2.8,1.1,4.5
			C106.4,15.9,106.4,16.5,106.3,16.9L106.3,16.9z M101.9,14c0-1.1-0.4-2-1.2-2.7s-1.8-1-2.9-1c-1.1,0-2,0.3-2.7,1s-1.2,1.6-1.4,2.7
			L101.9,14L101.9,14z"/>
		<path class="st0" d="M108.3,10.9c0.7-1.4,1.7-2.4,2.8-3.1c1.2-0.7,2.5-1.1,4-1.1c1.3,0,2.4,0.3,3.4,0.8s1.8,1.2,2.3,2V6.9h4.4
			v17.4h-4.4v-2.5c-0.6,0.8-1.3,1.5-2.3,2c-1,0.5-2.1,0.8-3.4,0.8c-1.5,0-2.8-0.4-4-1.1s-2.2-1.8-2.8-3.2s-1.1-2.9-1.1-4.7
			S107.6,12.3,108.3,10.9z M120.3,12.9c-0.4-0.8-1-1.4-1.7-1.8c-0.7-0.4-1.5-0.6-2.3-0.6s-1.6,0.2-2.3,0.6s-1.2,1-1.7,1.7
			s-0.6,1.7-0.6,2.7s0.2,2,0.6,2.7s1,1.4,1.7,1.8s1.4,0.6,2.2,0.6s1.6-0.2,2.3-0.6s1.3-1,1.7-1.8s0.6-1.7,0.6-2.7
			S120.7,13.7,120.3,12.9L120.3,12.9z"/>
		<path class="st0" d="M134.9,7.5c0.9-0.5,1.9-0.8,3.1-0.8v4.6h-1.2c-1.4,0-2.4,0.3-3.1,1c-0.7,0.6-1.1,1.8-1.1,3.4v8.6h-4.4V6.9
			h4.4v2.7C133.3,8.7,134,8,134.9,7.5L134.9,7.5z"/>
	</g>
	<g>
		<path class="st1" d="M24.1,8.5L24.1,8.5"/>
		<path class="st1" d="M19.3,12L19.3,12"/>
		<path class="st1" d="M27.6,32.8c-2.5,0-4.8-1.4-6-3.6l-9.4-18.2L2.9,27.2c-0.4,0.7-0.4,1.6,0,2.3s1.2,1.2,2,1.2h8v2.1H5
			c-1.6,0-3-0.8-3.8-2.2c-0.8-1.4-0.8-3,0-4.4L14.4,2.7c0.8-1.4,2.3-2.2,3.9-2.2l0,0c1.6,0,3.1,0.9,3.9,2.3l11.3,20
			c1.2,2.1,1.2,4.6,0,6.7C32.2,31.5,30,32.8,27.6,32.8L27.6,32.8z M13.4,8.7l10.1,19.4c0.8,1.5,2.4,2.5,4.1,2.5s3.1-0.9,4-2.3
			c0.8-1.4,0.8-3.1,0-4.6l-11.3-20c-0.4-0.7-1.2-1.2-2-1.2l0,0c-0.9,0-1.6,0.4-2,1.2C16.2,3.8,13.4,8.7,13.4,8.7z"/>
		<path class="st2" d="M12.9,32.8c-2.3,0-4.1-1.8-4.1-4.1s1.8-4.1,4.1-4.1s4.1,1.8,4.1,4.1S15.2,32.8,12.9,32.8z M12.9,26.7
			c-1.1,0-2,0.9-2,2s0.9,2,2,2s2-0.9,2-2S14,26.7,12.9,26.7z"/>
	</g>
</g>
</svg>
