<svg width="25" height="20" viewBox="0 0 25 20" fill="none" xmlns="http://www.w3.org/2000/svg">
<g clip-path="url(#clip0_67_60)">
<path d="M23.2101 11.8581C23.4515 11.6377 23.6672 11.3936 23.8563 11.1266C24.2925 10.5101 24.5699 9.78816 24.6574 9.03961L24.6593 3.69716H24.283L7.29134 0.601311C7.00056 0.549065 6.70028 0.484469 6.4095 0.422723C5.71201 0.273583 5.08864 0.263133 4.27141 0.085495L3.04652 2.3055V2.62658L7.89191 3.36658L22.3748 5.74048V8.16282L22.3777 8.18372C22.3938 8.29106 22.4015 8.39935 22.4015 8.50575C22.4015 8.61214 22.3938 8.72043 22.3777 8.82778C22.2304 9.81856 21.397 10.589 20.3973 10.6602C20.3422 10.664 20.2919 10.6659 20.2415 10.6659H7.48995C7.44718 10.6659 7.40347 10.664 7.35596 10.6612C7.32365 10.6593 7.29134 10.6564 7.25903 10.6536V10.7182H3.61668C3.69555 10.8587 3.78108 10.9955 3.87515 11.1276C4.06996 11.4031 4.29422 11.6538 4.54224 11.879C3.57677 12.7634 3.02942 14.0002 3.02942 15.3235C3.02942 17.9025 5.1276 20.001 7.70851 20.001C10.2894 20.001 12.3876 17.9025 12.3876 15.3235C12.3876 14.5008 12.1766 13.7105 11.7747 13.0075H15.9995C15.5976 13.7105 15.3876 14.5008 15.3876 15.3235C15.3876 17.9025 17.4867 20.001 20.0667 20.001C22.6466 20.001 24.7457 17.9025 24.7457 15.3235C24.7457 13.9888 24.1908 12.7453 23.2101 11.859V11.8581ZM7.70851 17.4589C6.47412 17.4589 5.47064 16.4548 5.47064 15.2209C5.47064 14.1056 6.30307 13.1519 7.40917 13.0037C7.5061 12.9904 7.60683 12.9838 7.70851 12.9838C7.81019 12.9838 7.90996 12.9904 8.00879 13.0047C9.11299 13.1519 9.94637 14.1056 9.94637 15.2209C9.94637 16.4548 8.94195 17.4589 7.70851 17.4589ZM20.0667 17.4589C18.8323 17.4589 17.8288 16.4548 17.8288 15.2209C17.8288 14.1056 18.6612 13.1519 19.7673 13.0037C19.8643 12.9904 19.965 12.9838 20.0667 12.9838C20.1683 12.9838 20.2691 12.9904 20.3669 13.0047C21.4711 13.1519 22.3045 14.1056 22.3045 15.2209C22.3045 16.4548 21.3001 17.4589 20.0667 17.4589Z" fill="#280F44"/>
<path d="M3.70317 2.75482C4.0139 2.75482 4.31799 2.90776 4.49949 3.18799C4.78361 3.62686 4.65723 4.21298 4.21726 4.49701C4.05856 4.5996 3.88087 4.64805 3.70412 4.64805C3.39338 4.64805 3.0893 4.49511 2.9078 4.21488C2.62367 3.776 2.75005 3.18989 3.19003 2.90586C3.34872 2.80327 3.52642 2.75482 3.70317 2.75482ZM3.70317 0C2.98952 0 2.29583 0.205187 1.69526 0.591812C0.864735 1.12853 0.292678 1.95592 0.0845705 2.92296C-0.123537 3.88905 0.0570129 4.87888 0.593911 5.71008C1.27905 6.77021 2.44217 7.40382 3.70507 7.40382C4.41871 7.40382 5.1124 7.19863 5.71297 6.81201C6.5435 6.27624 7.11556 5.4479 7.32461 4.48181C7.53272 3.51477 7.35217 2.52589 6.81527 1.69469C6.12918 0.633609 4.96606 0 3.70317 0Z" fill="#9C0C35"/>
</g>
<defs>
<clipPath id="clip0_67_60">
<rect width="24.7458" height="20" fill="white"/>
</clipPath>
</defs>
</svg>
