<?xml version="1.0" encoding="UTF-8"?>
<svg id="Capa_2" data-name="Capa 2" xmlns="http://www.w3.org/2000/svg" viewBox="0 0 608.5 608.5">
  <defs>
    <style>
      .cls-1 {
        fill: #fff;
      }
    </style>
  </defs>
  <g id="Capa_1-2" data-name="Capa 1">
    <g>
      <path class="cls-1" d="M304.25,608.5C136.49,608.5,0,472.01,0,304.25S136.49,0,304.25,0s304.25,136.49,304.25,304.25-136.49,304.25-304.25,304.25Zm0-595.64C143.58,12.86,12.86,143.58,12.86,304.25s130.72,291.39,291.39,291.39,291.39-130.72,291.39-291.39S464.92,12.86,304.25,12.86Z"/>
      <path class="cls-1" d="M294.98,570.08c-150.58,0-273.09-122.51-273.09-273.09S144.4,23.9,294.98,23.9s273.09,122.51,273.09,273.09-122.51,273.09-273.09,273.09Zm0-534.7c-144.25,0-261.61,117.36-261.61,261.61s117.36,261.61,261.61,261.61,261.61-117.36,261.61-261.61S439.24,35.38,294.98,35.38Z"/>
      <path class="cls-1" d="M285.72,531.66c-133.4,0-241.94-108.53-241.94-241.93S152.32,47.79,285.72,47.79s241.94,108.53,241.94,241.94-108.53,241.93-241.94,241.93Zm0-473.75c-127.82,0-231.82,103.99-231.82,231.82s103.99,231.82,231.82,231.82,231.82-103.99,231.82-231.82S413.55,57.91,285.72,57.91Z"/>
      <path class="cls-1" d="M276.46,493.25c-116.22,0-210.78-94.56-210.78-210.78S160.23,71.69,276.46,71.69s210.78,94.56,210.78,210.78-94.56,210.78-210.78,210.78Zm0-412.81c-111.4,0-202.03,90.63-202.03,202.03s90.63,202.03,202.03,202.03,202.03-90.63,202.03-202.03-90.63-202.03-202.03-202.03Z"/>
      <path class="cls-1" d="M267.19,454.83c-99.04,0-179.62-80.58-179.62-179.62S168.15,95.58,267.19,95.58s179.62,80.58,179.62,179.62-80.58,179.62-179.62,179.62Zm0-351.86c-94.98,0-172.24,77.27-172.24,172.24s77.27,172.24,172.24,172.24,172.24-77.27,172.24-172.24-77.27-172.24-172.24-172.24Z"/>
      <path class="cls-1" d="M257.93,416.41c-81.86,0-148.46-66.6-148.46-148.46S176.07,119.48,257.93,119.48s148.46,66.6,148.46,148.46-66.6,148.46-148.46,148.46Zm0-290.92c-78.55,0-142.45,63.91-142.45,142.45s63.91,142.45,142.45,142.45,142.45-63.91,142.45-142.45-63.91-142.45-142.45-142.45Z"/>
      <path class="cls-1" d="M248.67,377.99c-64.68,0-117.31-52.62-117.31-117.31s52.62-117.31,117.31-117.31,117.31,52.62,117.31,117.31-52.62,117.31-117.31,117.31Zm0-229.97c-62.13,0-112.67,50.54-112.67,112.67s50.54,112.66,112.67,112.66,112.66-50.54,112.66-112.66-50.54-112.67-112.66-112.67Z"/>
      <path class="cls-1" d="M239.4,339.57c-47.5,0-86.15-38.65-86.15-86.15s38.65-86.15,86.15-86.15,86.15,38.65,86.15,86.15-38.65,86.15-86.15,86.15Zm0-169.03c-45.7,0-82.88,37.18-82.88,82.88s37.18,82.88,82.88,82.88,82.88-37.18,82.88-82.88-37.18-82.88-82.88-82.88Z"/>
      <path class="cls-1" d="M230.14,301.16c-30.32,0-54.99-24.67-54.99-54.99s24.67-54.99,54.99-54.99,54.99,24.67,54.99,54.99-24.67,54.99-54.99,54.99Zm0-108.08c-29.27,0-53.09,23.82-53.09,53.09s23.82,53.09,53.09,53.09,53.09-23.82,53.09-53.09-23.82-53.09-53.09-53.09Z"/>
      <path class="cls-1" d="M220.87,262.74c-13.14,0-23.84-10.69-23.84-23.84s10.69-23.84,23.84-23.84,23.84,10.69,23.84,23.84-10.69,23.84-23.84,23.84Zm0-47.14c-12.85,0-23.3,10.45-23.3,23.3s10.45,23.3,23.3,23.3,23.3-10.45,23.3-23.3-10.45-23.3-23.3-23.3Z"/>
    </g>
  </g>
</svg>