<svg width="21" height="20" viewBox="0 0 21 20" fill="none" xmlns="http://www.w3.org/2000/svg">
<g clip-path="url(#clip0_67_61)">
<path d="M12.537 2.69928C13.636 3.08202 14.6175 3.69983 15.4523 4.53463C16.042 5.12432 16.5262 5.79738 16.8939 6.5277H19.348C18.011 2.93937 14.6617 0.296348 10.6454 0.03516L10.11 0V0.0160731C10.0929 0.0150686 10.0768 0.0150686 10.0598 0.014064C10.0105 0.0130594 9.96333 0.0130594 9.9121 0.014064C9.89502 0.014064 9.87895 0.014064 9.86288 0.0160731V0L9.32744 0.03516C4.09664 0.375709 0 4.75363 0 9.9995C0 15.2454 4.09664 19.6233 9.32744 19.9648L9.86288 20V19.9839C9.94525 19.9869 10.0276 19.9869 10.11 19.9839V20L10.6454 19.9648C12.4105 19.8493 14.1172 19.2647 15.5809 18.2721L15.9677 18.0109L14.8345 16.045L14.3855 16.3574C13.8149 16.7552 13.193 17.0727 12.537 17.3007C12.0729 17.4625 11.5917 17.579 11.1025 17.6493L11.1146 2.3517C11.5998 2.42202 12.077 2.53855 12.537 2.69928ZM6.05555 16.6608C5.50103 16.3323 4.9887 15.9335 4.52057 15.4654C3.79125 14.736 3.22467 13.8852 2.84193 12.959C2.45818 12.0338 2.25727 11.0312 2.25727 9.9995C2.25727 7.9351 3.06093 5.99427 4.52057 4.53463C4.9887 4.0665 5.50103 3.66769 6.05555 3.33919C5.22075 5.14642 4.74258 7.51921 4.74258 9.9995C4.74258 12.4798 5.22075 14.8536 6.05555 16.6608ZM8.85831 16.9632C8.62826 16.6779 8.40424 16.3243 8.20232 15.9214C7.43784 14.3915 6.99884 12.2337 6.99884 9.9995C6.99884 7.76533 7.43784 5.60751 8.20232 4.07856C8.40424 3.67472 8.62826 3.32212 8.85831 3.03682V16.9632Z" fill="#280F44"/>
<path d="M16.3353 8.01648C16.6638 8.01648 16.9853 8.17822 17.1772 8.47457C17.4775 8.93868 17.3439 9.5585 16.8788 9.85886C16.7111 9.96736 16.5232 10.0186 16.3364 10.0186C16.0079 10.0186 15.6864 9.85685 15.4945 9.56051C15.1942 9.09639 15.3278 8.47657 15.7929 8.17621C15.9606 8.06771 16.1485 8.01648 16.3353 8.01648ZM16.3353 5.10323C15.5809 5.10323 14.8476 5.32021 14.2127 5.72907C13.3347 6.29565 12.7299 7.17164 12.5089 8.19329C12.2889 9.21493 12.4798 10.2617 13.0474 11.1407C13.7717 12.2618 15.0013 12.9318 16.3364 12.9318C17.0908 12.9318 17.8241 12.7149 18.459 12.306C19.337 11.7394 19.9418 10.8634 20.1628 9.84179C20.3828 8.81913 20.1919 7.77337 19.6243 6.89438C18.9 5.77327 17.6704 5.10323 16.3353 5.10323Z" fill="#9C0C35"/>
</g>
<defs>
<clipPath id="clip0_67_61">
<rect width="20.2521" height="20" fill="white"/>
</clipPath>
</defs>
</svg>
