<?xml version="1.0" encoding="UTF-8"?>
<svg id="Capa_2" data-name="Capa 2" xmlns="http://www.w3.org/2000/svg" viewBox="0 0 138.07 33.27">
  <defs>
    <style>
      .cls-1 {
        fill: #9c0c35;
      }

      .cls-2 {
        fill: #280f44;
      }
    </style>
  </defs>
  <g id="Capa_1-2" data-name="Capa 1">
    <g>
      <g>
        <path class="cls-2" d="M60.72,16.95h-12.7c.11,1.25,.54,2.24,1.32,2.95,.77,.71,1.73,1.07,2.85,1.07,1.63,0,2.79-.7,3.48-2.1h4.73c-.5,1.67-1.46,3.05-2.88,4.12-1.42,1.08-3.17,1.62-5.24,1.62-1.67,0-3.17-.37-4.5-1.11-1.33-.74-2.36-1.79-3.1-3.15-.74-1.36-1.11-2.93-1.11-4.7s.36-3.38,1.1-4.73c.73-1.36,1.75-2.4,3.07-3.14,1.32-.73,2.83-1.1,4.55-1.1s3.13,.36,4.44,1.07c1.31,.71,2.32,1.72,3.04,3.03,.72,1.31,1.08,2.81,1.08,4.5,0,.63-.04,1.19-.12,1.69Zm-4.42-2.95c-.02-1.13-.43-2.03-1.22-2.71-.79-.68-1.77-1.02-2.92-1.02-1.09,0-2,.33-2.74,.99-.74,.66-1.2,1.57-1.36,2.74h8.25Z"/>
        <path class="cls-2" d="M69.52,7.46c.99-.53,2.13-.8,3.4-.8,1.48,0,2.83,.37,4.03,1.1,1.2,.73,2.15,1.77,2.85,3.12s1.05,2.91,1.05,4.69-.35,3.35-1.05,4.72-1.65,2.43-2.85,3.18c-1.2,.75-2.55,1.13-4.03,1.13-1.27,0-2.4-.26-3.37-.78-.97-.52-1.76-1.18-2.37-1.98v10.76h-4.39V6.95h4.39v2.51c.57-.79,1.34-1.46,2.34-1.99Zm6.21,5.39c-.43-.76-.99-1.34-1.69-1.74s-1.46-.59-2.27-.59-1.54,.2-2.24,.61-1.27,1-1.69,1.77c-.43,.77-.64,1.68-.64,2.73s.21,1.95,.64,2.73c.43,.77,.99,1.36,1.69,1.77,.7,.41,1.45,.61,2.24,.61s1.57-.21,2.27-.63,1.26-1.01,1.69-1.79,.64-1.69,.64-2.76-.22-1.95-.64-2.71Z"/>
        <path class="cls-2" d="M87.18,1.11V24.32h-4.39V1.11h4.39Z"/>
        <path class="cls-2" d="M106.28,16.95h-12.7c.11,1.25,.54,2.24,1.32,2.95,.77,.71,1.73,1.07,2.85,1.07,1.63,0,2.79-.7,3.48-2.1h4.73c-.5,1.67-1.46,3.05-2.88,4.12-1.42,1.08-3.17,1.62-5.24,1.62-1.67,0-3.17-.37-4.5-1.11-1.33-.74-2.36-1.79-3.1-3.15-.74-1.36-1.11-2.93-1.11-4.7s.36-3.38,1.1-4.73c.73-1.36,1.75-2.4,3.07-3.14,1.32-.73,2.83-1.1,4.55-1.1s3.13,.36,4.44,1.07c1.31,.71,2.32,1.72,3.04,3.03,.72,1.31,1.08,2.81,1.08,4.5,0,.63-.04,1.19-.12,1.69Zm-4.42-2.95c-.02-1.13-.43-2.03-1.22-2.71-.79-.68-1.77-1.02-2.92-1.02-1.09,0-2,.33-2.74,.99-.74,.66-1.2,1.57-1.36,2.74h8.25Z"/>
        <path class="cls-2" d="M108.27,10.9c.7-1.36,1.65-2.4,2.85-3.14,1.2-.73,2.54-1.1,4.03-1.1,1.3,0,2.43,.26,3.4,.78,.97,.52,1.75,1.18,2.34,1.98v-2.48h4.42V24.32h-4.42v-2.54c-.57,.81-1.34,1.49-2.34,2.02-.99,.53-2.14,.8-3.43,.8-1.46,0-2.8-.38-4-1.13-1.2-.75-2.15-1.81-2.85-3.18s-1.05-2.94-1.05-4.72,.35-3.31,1.05-4.67Zm11.99,1.99c-.42-.76-.98-1.35-1.69-1.75-.71-.41-1.47-.61-2.29-.61s-1.57,.2-2.26,.59-1.25,.98-1.68,1.74-.64,1.67-.64,2.71,.21,1.96,.64,2.74,.99,1.38,1.69,1.8,1.45,.63,2.24,.63,1.58-.2,2.29-.61c.71-.41,1.27-.99,1.69-1.75s.63-1.68,.63-2.74-.21-1.98-.63-2.74Z"/>
        <path class="cls-2" d="M134.95,7.48c.91-.52,1.95-.79,3.12-.79v4.61h-1.16c-1.38,0-2.42,.32-3.12,.97-.7,.65-1.05,1.78-1.05,3.39v8.65h-4.39V6.95h4.39v2.7c.57-.92,1.3-1.64,2.21-2.16Z"/>
      </g>
      <g>
        <polygon class="cls-2" points="24.12 9.03 24.11 8.03 24.12 8.03 24.12 9.03"/>
        <polygon class="cls-2" points="19.35 12.47 19.34 11.47 19.35 11.47 19.35 12.47"/>
        <g>
          <path class="cls-2" d="M27.58,32.77c-2.52,0-4.81-1.39-5.97-3.63L12.18,10.91,2.93,27.16c-.42,.73-.41,1.6,.01,2.33s1.18,1.16,2.01,1.16h7.97v2.12H4.96c-1.6,0-3.04-.83-3.85-2.21-.81-1.39-.81-3.04-.02-4.44L14.38,2.75c.8-1.41,2.25-2.25,3.87-2.25h0c1.62,0,3.07,.85,3.87,2.26l11.3,19.98c1.19,2.1,1.17,4.6-.04,6.69-1.22,2.09-3.39,3.33-5.8,3.33ZM13.43,8.71l10.06,19.45c.79,1.53,2.36,2.48,4.08,2.48s3.14-.85,3.97-2.28c.83-1.43,.84-3.14,.03-4.58L20.28,3.8c-.42-.74-1.18-1.18-2.03-1.18h0c-.85,0-1.61,.44-2.03,1.18l-2.79,4.91Z"/>
          <path class="cls-2" d="M27.58,33.27c-2.71,0-5.17-1.5-6.41-3.9L12.16,11.95,3.37,27.41c-.33,.57-.32,1.26,0,1.83,.33,.57,.92,.91,1.58,.91H13.42v3.12H4.96c-1.78,0-3.38-.92-4.28-2.46-.9-1.54-.91-3.39-.02-4.94L13.95,2.5c.89-1.57,2.5-2.5,4.3-2.5,1.81,0,3.42,.94,4.31,2.51l11.3,19.98c1.28,2.26,1.26,4.95-.05,7.19-1.31,2.24-3.64,3.58-6.23,3.58ZM12.2,9.86l9.85,19.05c1.07,2.07,3.19,3.36,5.52,3.36s4.24-1.15,5.37-3.08c1.13-1.93,1.14-4.25,.04-6.19L21.69,3.01c-.71-1.25-1.99-2-3.43-2.01-1.44,0-2.73,.75-3.44,2L1.52,26.36c-.7,1.24-.7,2.71,.02,3.94,.71,1.23,1.99,1.96,3.41,1.96h7.47v-1.12H4.96c-1.02,0-1.94-.53-2.45-1.41-.51-.88-.52-1.94-.01-2.82L12.2,9.86Zm15.37,21.29c-1.91,0-3.65-1.06-4.53-2.76L12.86,8.7l2.93-5.15c.51-.9,1.43-1.43,2.46-1.43,1.04,0,1.96,.54,2.46,1.44l11.3,19.98c.9,1.6,.89,3.49-.03,5.08-.92,1.58-2.57,2.53-4.4,2.53ZM14,8.72l9.94,19.21c.71,1.37,2.1,2.21,3.64,2.21s2.8-.76,3.54-2.03c.74-1.27,.75-2.8,.03-4.08L19.84,4.05c-.33-.58-.92-.93-1.59-.93-.67,0-1.26,.35-1.59,.93l-2.66,4.68Z"/>
        </g>
        <g>
          <path class="cls-1" d="M12.92,32.77c-2.26,0-4.1-1.84-4.1-4.1s1.84-4.1,4.1-4.1,4.1,1.84,4.1,4.1-1.84,4.1-4.1,4.1Zm0-6.08c-1.09,0-1.98,.89-1.98,1.98s.89,1.98,1.98,1.98,1.98-.89,1.98-1.98-.89-1.98-1.98-1.98Z"/>
          <path class="cls-1" d="M12.92,33.27c-2.54,0-4.6-2.06-4.6-4.6s2.06-4.6,4.6-4.6,4.6,2.06,4.6,4.6-2.06,4.6-4.6,4.6Zm0-8.2c-1.98,0-3.6,1.61-3.6,3.6s1.61,3.6,3.6,3.6,3.6-1.62,3.6-3.6-1.61-3.6-3.6-3.6Zm0,6.08c-1.37,0-2.48-1.11-2.48-2.48s1.11-2.48,2.48-2.48,2.48,1.11,2.48,2.48-1.11,2.48-2.48,2.48Zm0-3.96c-.82,0-1.48,.66-1.48,1.48s.66,1.48,1.48,1.48,1.48-.66,1.48-1.48-.66-1.48-1.48-1.48Z"/>
        </g>
      </g>
    </g>
  </g>
</svg>