<?xml version="1.0" encoding="UTF-8"?>
<svg id="Capa_2" data-name="Capa 2" xmlns="http://www.w3.org/2000/svg" viewBox="0 0 950.68 142.93">
  <defs>
    <style>
      .cls-1 {
        fill: #b70808;
      }

      .cls-2 {
        fill: #11492d;
      }
    </style>
  </defs>
  <g id="Capa_1-2" data-name="Capa 1">
    <g>
      <g>
        <path class="cls-1" d="M328.98,118.69v22.23h-34.08c-6.46,0-11.7-5.24-11.7-11.7v-10.53s.04,0,.04,0v-45.09c0-3.66-2.97-6.63-6.63-6.63h-9.36v-22.6h27.22c10.45,0,18.92,8.47,18.92,18.92v50.13c0,2.91,2.36,5.28,5.28,5.28h10.32Zm-13.5-101.79c0,4.9-1.82,8.96-5.45,12.17-3.63,3.21-7.95,4.82-12.95,4.82s-9.41-1.67-13.05-5.01c-3.63-3.34-5.45-7.33-5.45-11.99s1.81-8.56,5.45-11.9c3.63-3.34,7.98-5.01,13.05-5.01s9.31,1.67,12.95,5.01c3.63,3.34,5.45,7.3,5.45,11.9Z"/>
        <path class="cls-1" d="M193.22,26V117.41h25.49c10.49,0,18.99-8.5,18.99-18.99h0s29.49,0,29.49,0v15.46c0,14.94-12.11,27.05-27.05,27.05h-77.06v-23.52h-.04V32.96c0-3.85-3.12-6.96-6.96-6.96h-8.96s0-22.65,0-22.65h27.44c10.3,0,18.66,8.35,18.66,18.66v3.99h0Z"/>
        <path class="cls-1" d="M400.12,47.48v-3.4h23.89v28.29h-23.89c-2.07-6.8-9.73-10.2-22.99-10.2-9.53,0-14.29,2.45-14.29,7.35,0,2.14,1.27,3.74,3.8,4.78,2.53,1.04,6.23,1.9,11.1,2.57,13.66,1.59,24.42,3.87,32.29,6.84,7.86,2.97,13.36,6.65,16.5,11.02,3.13,4.38,4.7,9.69,4.7,15.94,0,10.17-3.78,18.08-11.35,23.75-7.56,5.67-17.84,8.5-30.84,8.5s-21.26-2.33-25.79-6.98v4.69h-24.39v-33.26h24.39c.67,4.59,3.08,8.21,7.25,10.84,4.16,2.63,9.31,3.95,15.45,3.95s10.43-.63,13.29-1.88c2.87-1.25,4.3-3.45,4.3-6.57,0-2.14-.6-3.81-1.8-5.01-1.2-1.19-3.52-2.25-6.95-3.17-3.43-.92-8.68-1.96-15.75-3.12-15.73-2.27-27.04-5.93-33.94-10.98-6.9-5.05-10.35-11.87-10.35-20.44s3.58-15.65,10.75-20.67c7.16-5.02,16.61-7.53,28.34-7.53,9.46,0,18.23,1.56,26.29,4.69Z"/>
        <path class="cls-1" d="M497.54,42.73v22.6h-19.39v42.17c0,3,.63,5.25,1.9,6.75,1.26,1.5,3.63,2.25,7.1,2.25,2.86,0,6.33-.67,10.4-2.02,0,0,0,21.41,0,21.41-9.44,3.41-21.23,6.7-31.21,4.11-5.31-1.38-10.1-4.64-13.32-9.07-5.96-8.2-4.62-18.93-4.62-28.52v-37.07h-13.3v-22.6h13.3v-14.97l29.77-22.05V42.73h19.39Z"/>
        <path class="cls-1" d="M706.44,43.27v28.94c-9.2,.55-16.51,1.88-21.94,4-5.43,2.11-9.63,5.74-12.6,10.89-2.97,5.14-4.45,12.49-4.45,22.05v9.55h.13v22.23h-29.43v-22.23h0v-44.61c0-3.93-3.18-7.11-7.11-7.11h-11.18v-22.6h20.26c13.55,0,24.53,10.98,24.53,24.53h0c2.46-7.41,7.03-13.56,13.7-18.46,6.66-4.9,14.93-7.35,24.79-7.35,1.46,0,2.56,.06,3.3,.18Z"/>
        <path class="cls-1" d="M794.13,72.43h-21.07m46.73,68.49v-42.83m-30.13,4.47v22.69l-.02-.02"/>
        <path class="cls-1" d="M824.07,118.66c-2.37,0-4.28-1.91-4.28-4.27v-43.45c.03-.19,.04-.37,.04-.56V21.62c0-10.45-8.48-18.92-18.94-18.92h-27.27V25.3h9.38c3.67,0,6.64,2.97,6.64,6.64v23.31c-7.94-8.74-18.06-13.11-30.37-13.11-8.6,0-16.4,2.13-23.4,6.38-6.99,4.26-12.41,10.18-16.24,17.78-3.83,7.59-5.75,16.23-5.75,25.9s1.92,17.89,5.75,25.54c3.83,7.66,9.15,13.68,15.94,18.06,6.8,4.38,14.63,6.56,23.5,6.56,5.39,0,10.64-1.08,15.74-3.24,5.1-2.15,10.05-5.39,14.85-9.71,0,6.34,5.14,11.48,11.48,11.48h34.18v-22.23h-11.25Zm-39.76-7.67c-3.7,4.75-8.82,7.12-15.35,7.12s-11.56-2.42-15.29-7.26c-3.74-4.83-5.6-10.99-5.6-18.46s1.86-13.51,5.6-18.28c3.73-4.78,8.76-7.17,15.09-7.17s11.68,2.39,15.45,7.17c3.76,4.77,5.65,10.93,5.65,18.46s-1.85,13.68-5.55,18.42Z"/>
        <path class="cls-1" d="M950.68,90.31c0,9.62-2.47,18.28-7.4,26-4.93,7.72-11.6,13.75-19.99,18.1-8.4,4.35-17.63,6.52-27.69,6.52-10.66,0-20.19-2.17-28.59-6.52-8.4-4.35-14.94-10.38-19.64-18.1-4.7-7.72-7.05-16.38-7.05-26s2.41-18.16,7.25-25.81c4.83-7.66,11.48-13.67,19.94-18.05,8.46-4.38,17.83-6.57,28.09-6.57s19.89,2.19,28.29,6.57c8.4,4.38,14.96,10.4,19.69,18.05,4.73,7.66,7.1,16.26,7.1,25.81Zm-55.28,26.64c6.53,0,11.65-2.34,15.34-7.03,3.7-4.68,5.55-11.41,5.55-20.16,0-8.21-1.85-14.62-5.55-19.25-3.7-4.62-8.88-6.94-15.54-6.94s-11.83,2.28-15.29,6.84c-3.47,4.56-5.2,11.44-5.2,20.62,0,7.78,1.88,14.04,5.65,18.79,3.76,4.75,8.78,7.12,15.04,7.12Z"/>
        <path class="cls-1" d="M621.32,118.35h-10.45c-2.92,0-5.28-2.37-5.27-5.29l.07-30.42c.11-12.29-1.63-23.8-11.45-32.19-9.7-8.29-22.31-8.6-34.43-8.6-25.66,0-42.59,7.59-50.78,22.78l26.99,4.5c5.6-5.14,12.03-7.72,19.29-7.72,6.66,0,11.66,1.47,15,4.41,3.33,2.94,5,6.86,5,11.76v7.72c-4.6-2.14-8.65-3.66-12.15-4.55-3.5-.89-7.48-1.33-11.95-1.33-12.86,0-23.18,2.96-30.94,8.87-7.76,5.91-11.65,13.77-11.65,23.56,0,17.62,15.13,28.76,31.72,30.09,6.62,.53,13.36-.59,19.47-3.18,4.96-2.1,11.94-4.63,15.35-8.97,.06-.08,.14-.17,.14-.27v-1c0,6.67,5.41,12.08,12.08,12.08,0,0,18.18,0,18.18-.03h15.78v-22.23Zm-46.04-5.39c-8.06,6.61-15.09,9.92-21.09,9.92-9,0-13.5-4.32-13.5-12.95,0-3.86,1.27-6.83,3.8-8.91,2.53-2.08,6.2-3.12,11-3.12,6,0,12.6,2.14,19.79,6.43v8.64Z"/>
      </g>
      <g>
        <path class="cls-2" d="M67.67,43.38c-.42,11.04-1.36,19.9,.39,28.91,8.13-3.7,15.74-10.44,17.75-23.34,2.04-12.67-3.26-30.09-17.3-45.96-.87,16.51-.2,29.36-.84,40.39Z"/>
        <path class="cls-2" d="M50.76,94.67c-1.99,12.48,3.4,29.88,17.91,46.37,1-15.9,.06-28.75,.51-39.96,.22-11.22,1.06-20.35-.69-29.34-8.13,3.71-15.76,10.22-17.73,22.93Z"/>
        <path class="cls-2" d="M97.47,71.14c-11.17-.2-20.16-.93-29.16,.81,3.7,8.12,10.42,15.87,23.36,17.93,12.71,2.08,30.26-3.32,46.42-17.95-16.49-1.2-29.46-.37-40.62-.8Z"/>
        <path class="cls-2" d="M45.92,54.82c-12.46-1.95-29.72,3.33-45.92,17.26,15.93,.67,28.68-.11,39.76,.57,11.09,.45,20.1,1.5,29.09-.26-3.71-8.14-10.25-15.63-22.93-17.56Z"/>
        <path class="cls-2" d="M86.65,50.56c-8.03,7.44-14.98,13.22-20.11,20.78,8.37,3.14,18.31,3.95,28.51-3.32,10.13-7.24,17.69-21.32,19.73-37.28-10.94,4.67-20.04,12.43-28.12,19.82Z"/>
        <path class="cls-2" d="M37.91,75.47c-10.59,7.66-18.42,21.67-20.77,36.44,11.65-4.62,21.34-12.14,29.7-19.65,8.3-7.53,15.25-13.46,20.39-21.01-8.36-3.17-18.69-3.47-29.32,4.21Z"/>
        <path class="cls-2" d="M87.25,91.81c-7.19-8.56-12.81-15.74-20.4-20.85-3.16,8.34-3.79,18.51,3.55,29.24,7.3,10.67,21.3,18.93,36.6,21.7-5.09-11.66-12.59-21.46-19.75-30.08Z"/>
        <path class="cls-2" d="M62.96,43.2c-7.61-10-21.72-17.1-37.25-18.71,4.17,10.91,11.96,19.87,19.73,27.64,7.8,7.72,13.93,14.38,21.49,19.52,3.18-8.34,3.66-18.39-3.97-28.44Z"/>
      </g>
    </g>
  </g>
</svg>