<?xml version="1.0" encoding="UTF-8"?>
<svg id="Capa_2" data-name="Capa 2" xmlns="http://www.w3.org/2000/svg" viewBox="0 0 1242.79 73.19">
  <defs>
    <style>
      .cls-1 {
        fill: #b70808;
      }

      .cls-2 {
        fill: #c57500;
      }

      .cls-3 {
        fill: #11492d;
      }

      .cls-4 {
        fill: #453011;
      }

      .cls-5 {
        fill: #18903d;
      }

      .cls-6 {
        fill: #9c0c35;
      }

      .cls-7 {
        fill: #280f44;
      }
    </style>
  </defs>
  <g id="Capa_1-2" data-name="Capa 1">
    <g id="Capa_1-2" data-name="Capa 1-2">
      <g>
        <g>
          <path class="cls-7" d="M96.61,37.1h-20.21c.18,1.99,.86,3.56,2.1,4.69,1.23,1.13,2.75,1.7,4.53,1.7,2.59,0,4.44-1.11,5.54-3.34h7.53c-.8,2.66-2.32,4.85-4.58,6.55-2.26,1.72-5.04,2.58-8.34,2.58-2.66,0-5.04-.59-7.16-1.77s-3.75-2.85-4.93-5.01c-1.18-2.16-1.77-4.66-1.77-7.48s.57-5.38,1.75-7.53c1.16-2.16,2.78-3.82,4.88-5,2.1-1.16,4.5-1.75,7.24-1.75s4.98,.57,7.06,1.7c2.08,1.13,3.69,2.74,4.84,4.82,1.15,2.08,1.72,4.47,1.72,7.16,0,1-.06,1.89-.19,2.69l-.02-.03Zm-7.03-4.69c-.03-1.8-.68-3.23-1.94-4.31s-2.82-1.62-4.65-1.62c-1.73,0-3.18,.53-4.36,1.58s-1.91,2.5-2.16,4.36h13.11Z"/>
          <path class="cls-7" d="M110.61,22c1.58-.84,3.39-1.27,5.41-1.27,2.35,0,4.5,.59,6.41,1.75s3.42,2.82,4.53,4.96,1.67,4.63,1.67,7.46-.56,5.33-1.67,7.51-2.63,3.87-4.53,5.06-4.06,1.8-6.41,1.8c-2.02,0-3.82-.41-5.36-1.24s-2.8-1.88-3.77-3.15v17.12h-6.98V21.19h6.98v3.99c.91-1.26,2.13-2.32,3.72-3.17v-.02Zm9.88,8.58c-.68-1.21-1.58-2.13-2.69-2.77s-2.32-.94-3.61-.94-2.45,.32-3.56,.97-2.02,1.59-2.69,2.82c-.68,1.23-1.02,2.67-1.02,4.34s.33,3.1,1.02,4.34c.68,1.23,1.58,2.16,2.69,2.82,1.11,.65,2.31,.97,3.56,.97s2.5-.33,3.61-1,2-1.61,2.69-2.85,1.02-2.69,1.02-4.39-.35-3.1-1.02-4.31Z"/>
          <path class="cls-7" d="M138.7,11.9V48.82h-6.98V11.9h6.98Z"/>
          <path class="cls-7" d="M169.09,37.1h-20.21c.18,1.99,.86,3.56,2.1,4.69,1.23,1.13,2.75,1.7,4.53,1.7,2.59,0,4.44-1.11,5.54-3.34h7.53c-.8,2.66-2.32,4.85-4.58,6.55-2.26,1.72-5.04,2.58-8.34,2.58-2.66,0-5.04-.59-7.16-1.77s-3.75-2.85-4.93-5.01-1.77-4.66-1.77-7.48,.57-5.38,1.75-7.53c1.16-2.16,2.78-3.82,4.88-5,2.1-1.16,4.5-1.75,7.24-1.75s4.98,.57,7.06,1.7c2.08,1.13,3.69,2.74,4.84,4.82,1.15,2.08,1.72,4.47,1.72,7.16,0,1-.06,1.89-.19,2.69l-.02-.03Zm-7.03-4.69c-.03-1.8-.68-3.23-1.94-4.31s-2.82-1.62-4.65-1.62c-1.73,0-3.18,.53-4.36,1.58s-1.91,2.5-2.16,4.36h13.11Z"/>
          <path class="cls-7" d="M172.26,27.47c1.11-2.16,2.63-3.82,4.53-5,1.91-1.16,4.04-1.75,6.41-1.75,2.07,0,3.87,.41,5.41,1.24,1.54,.83,2.78,1.88,3.72,3.15v-3.95h7.03v27.65h-7.03v-4.04c-.91,1.29-2.13,2.37-3.72,3.21-1.58,.84-3.4,1.27-5.46,1.27-2.32,0-4.45-.6-6.36-1.8s-3.42-2.88-4.53-5.06-1.67-4.68-1.67-7.51,.56-5.27,1.67-7.43Zm19.08,3.17c-.67-1.21-1.56-2.15-2.69-2.78-1.13-.65-2.34-.97-3.64-.97s-2.5,.32-3.6,.94-1.99,1.56-2.67,2.77-1.02,2.66-1.02,4.31,.33,3.12,1.02,4.36,1.58,2.2,2.69,2.86,2.31,1,3.56,1,2.51-.32,3.64-.97,2.02-1.58,2.69-2.78,1-2.67,1-4.36-.33-3.15-1-4.36l.02-.02Z"/>
          <path class="cls-7" d="M214.7,22.03c1.45-.83,3.1-1.26,4.96-1.26v7.33h-1.85c-2.2,0-3.85,.51-4.96,1.54-1.11,1.03-1.67,2.83-1.67,5.39v13.76h-6.98V21.19h6.98v4.3c.91-1.46,2.07-2.61,3.52-3.44v-.02Z"/>
        </g>
        <g>
          <polygon class="cls-7" points="38.38 24.5 38.36 22.91 38.38 22.91 38.38 24.5"/>
          <polygon class="cls-7" points="30.79 29.97 30.77 28.38 30.79 28.38 30.79 29.97"/>
          <g>
            <path class="cls-7" d="M43.88,62.27c-4.01,0-7.65-2.21-9.5-5.78l-15-29L4.66,53.34c-.67,1.16-.65,2.55,.02,3.71s1.88,1.85,3.2,1.85h12.68v3.37H7.89c-2.55,0-4.84-1.32-6.13-3.52-1.29-2.21-1.29-4.84-.03-7.06L22.88,14.51c1.27-2.24,3.58-3.58,6.16-3.58h0c2.58,0,4.88,1.35,6.16,3.6l17.98,31.79c1.89,3.34,1.86,7.32-.06,10.64-1.94,3.33-5.39,5.3-9.23,5.3v.02ZM21.37,23.99l16.01,30.94c1.26,2.43,3.75,3.95,6.49,3.95s5-1.35,6.32-3.63c1.32-2.28,1.34-5,.05-7.29l-17.96-31.79c-.67-1.18-1.88-1.88-3.23-1.88h0c-1.35,0-2.56,.7-3.23,1.88,0,0-4.44,7.81-4.44,7.81Z"/>
            <path class="cls-7" d="M43.88,63.06c-4.31,0-8.23-2.39-10.2-6.2l-14.33-27.71L5.36,53.74c-.53,.91-.51,2,0,2.91,.53,.91,1.46,1.45,2.51,1.45h13.48v4.96H7.89c-2.83,0-5.38-1.46-6.81-3.91-1.43-2.45-1.45-5.39-.03-7.86L22.2,14.11c1.42-2.5,3.98-3.98,6.84-3.98s5.44,1.5,6.86,3.99l17.98,31.79c2.04,3.6,2,7.88-.08,11.44-2.08,3.56-5.79,5.7-9.91,5.7v.02ZM19.41,25.82l15.67,30.31c1.7,3.29,5.08,5.35,8.78,5.35s6.75-1.83,8.54-4.9c1.8-3.07,1.81-6.76,.06-9.85L34.51,14.92c-1.13-1.99-3.17-3.18-5.46-3.2-2.29,0-4.34,1.19-5.47,3.18L2.42,52.07c-1.11,1.97-1.11,4.31,.03,6.27,1.13,1.96,3.17,3.12,5.43,3.12h11.88v-1.78H7.89c-1.62,0-3.09-.84-3.9-2.24s-.83-3.09-.02-4.49l15.43-27.13Zm24.45,33.87c-3.04,0-5.81-1.69-7.21-4.39L20.46,23.97l4.66-8.19c.81-1.43,2.28-2.28,3.91-2.28s3.12,.86,3.91,2.29l17.98,31.79c1.43,2.55,1.42,5.55-.05,8.08-1.46,2.51-4.09,4.03-7,4.03h-.02ZM22.28,24l15.81,30.56c1.13,2.18,3.34,3.52,5.79,3.52s4.45-1.21,5.63-3.23c1.18-2.02,1.19-4.45,.05-6.49L31.57,16.57c-.53-.92-1.46-1.48-2.53-1.48s-2,.56-2.53,1.48l-4.23,7.45v-.02Z"/>
          </g>
          <g>
            <path class="cls-6" d="M20.56,62.27c-3.6,0-6.52-2.93-6.52-6.52s2.93-6.52,6.52-6.52,6.52,2.93,6.52,6.52-2.93,6.52-6.52,6.52Zm0-9.67c-1.73,0-3.15,1.42-3.15,3.15s1.42,3.15,3.15,3.15,3.15-1.42,3.15-3.15-1.42-3.15-3.15-3.15Z"/>
            <path class="cls-6" d="M20.56,63.06c-4.04,0-7.32-3.28-7.32-7.32s3.28-7.32,7.32-7.32,7.32,3.28,7.32,7.32-3.28,7.32-7.32,7.32Zm0-13.05c-3.15,0-5.73,2.56-5.73,5.73s2.56,5.73,5.73,5.73,5.73-2.58,5.73-5.73-2.56-5.73-5.73-5.73Zm0,9.67c-2.18,0-3.95-1.77-3.95-3.95s1.77-3.95,3.95-3.95,3.95,1.77,3.95,3.95-1.77,3.95-3.95,3.95Zm0-6.3c-1.3,0-2.35,1.05-2.35,2.35s1.05,2.35,2.35,2.35,2.35-1.05,2.35-2.35-1.05-2.35-2.35-2.35Z"/>
          </g>
        </g>
      </g>
    </g>
    <g id="Capa_1-2-2" data-name="Capa 1-2">
      <path class="cls-4" d="M374.9,4.89v3.06c0,.49-.16,1.03-.47,1.59s-.75,1.04-1.28,1.37c-4.64,2.9-9.29,1.95-13.93,.2v24.06h0v25.22h-7.27V8.15c-4.65-1.75-9.3-2.71-13.95,.21-.49,.31-.89,.44-1.2,.37-.31-.07-.47-.33-.47-.82v-3.06c0-.53,.16-1.09,.47-1.65,.31-.56,.72-1.01,1.2-1.32,11.72-7.34,23.44,9.87,35.16,2.55,.53-.34,.96-.49,1.28-.42,.31,.07,.47,.36,.47,.9h0Z"/>
      <path class="cls-4" d="M396.11,34.05c-.57-1.38-1.38-2.65-2.39-3.79-1.03-1.15-2.32-2.08-3.86-2.76-1.53-.68-3.41-1.03-5.55-1.03s-4.29,.34-6.19,1.24c-.53,.25-1.03,.54-1.51,.88s-.9,.75-1.3,1.19c-.11,.12-.39,.36-.39,.55v-13.57l-6.62-.06V60.48h6.67v-17.45c0-1.77,.21-3.32,.6-4.62,.39-1.27,.95-2.33,1.65-3.15,.69-.81,1.53-1.42,2.5-1.83,.98-.42,2.1-.62,3.32-.62,1.56,0,2.85,.29,3.86,.88,1,.59,1.81,1.4,2.39,2.41,.61,1.05,1.05,2.25,1.31,3.56,.27,1.35,.4,2.76,.4,4.2v16.62h6.67v-18.28c0-1.22-.12-2.56-.35-3.97-.23-1.42-.64-2.83-1.21-4.19h0Z"/>
      <path class="cls-4" d="M428.79,60.48v-20.37c0-1.27-.06-2.51-.18-3.68-.12-1.22-.43-2.37-.91-3.4-.96-2.22-2.58-3.91-4.79-5.01-2.16-1.07-4.77-1.62-7.75-1.62-3.73,0-6.78,.85-9.1,2.52-2.32,1.68-3.9,4.01-4.7,6.95l-.18,.64,6.27,1.89,.2-.66c.55-1.79,1.44-3.06,2.75-3.86,1.33-.81,2.91-1.22,4.7-1.22,2.69,0,4.57,.61,5.61,1.81,.86,1,1.37,2.47,1.5,4.4-.94,.13-1.9,.26-2.91,.39-1.92,.25-3.84,.54-5.71,.84-1.89,.31-3.62,.68-5.15,1.09-1.68,.49-3.15,1.18-4.37,2.04-1.25,.88-2.24,2-2.91,3.31-.68,1.31-1.02,2.87-1.02,4.64s.44,3.52,1.31,5.05c.88,1.54,2.18,2.8,3.89,3.73,1.7,.92,3.82,1.4,6.3,1.4,3.17,0,5.93-.69,8.19-2.06,1.08-.66,2.05-1.46,2.91-2.43v3.6h6.02Zm-6.61-15.74c0,.29-.01,.59-.03,.92-.04,1.14-.18,2.19-.46,3.17-.23,1.2-.75,2.33-1.52,3.36-.78,1.02-1.82,1.85-3.1,2.48-1.29,.63-2.83,.94-4.61,.94-1.4,0-2.52-.22-3.35-.66-.81-.42-1.41-.98-1.78-1.65-.39-.69-.57-1.39-.57-2.14,0-.85,.18-1.54,.57-2.11,.4-.59,.94-1.09,1.61-1.48,.7-.41,1.48-.75,2.27-1.01,1.15-.33,2.46-.61,3.88-.83,1.44-.23,3.01-.46,4.66-.68,.81-.1,1.61-.21,2.42-.33h0Z"/>
      <circle class="cls-2" cx="436.39" cy="19.58" r="4.68"/>
      <path class="cls-4" d="M433.24,26.81c-.1,0-.17,.08-.17,.17v31.07c0,.92-.01,1.83-.03,2.74s-.04,2.83-.36,3.67c-.42,1.11-1.29,1.69-2.41,1.98-.62,.16-1.27,.23-1.9,.3-1.26,.14-2.53,.06-3.77-.13-2.56-.39-5.03-1.24-7.56-1.77-.88-.18-1.78-.34-2.68-.42-.22-.02-2.65-.07-2.65,.03l.73,6.24s1.78,0,1.95,.01c.66,.05,1.31,.14,1.96,.26,1.43,.26,2.9,.59,4.27,1.04s2.82,.79,4.28,.98c.92,.12,1.85,.19,2.77,.21s1.81-.08,2.71-.11c1.08-.06,2.16-.18,3.21-.45,1.74-.44,3.44-1.33,4.51-2.78,1.18-1.6,1.58-3.8,1.58-5.75V26.98c0-.1-.08-.17-.17-.17h-6.27Z"/>
    </g>
    <g id="Capa_1-2-3" data-name="Capa 1-2">
      <g>
        <g>
          <path class="cls-1" d="M649.49,51v6.78h-10.39c-1.97,0-3.57-1.6-3.57-3.57v-3.21h.01v-13.75c0-1.12-.91-2.02-2.02-2.02h-2.85v-6.89h8.3c3.19,0,5.77,2.58,5.77,5.77v15.29c0,.89,.72,1.61,1.61,1.61h3.14Zm-4.12-31.04c0,1.49-.56,2.73-1.66,3.71s-2.42,1.47-3.95,1.47-2.87-.51-3.98-1.53c-1.11-1.02-1.66-2.24-1.66-3.66s.55-2.61,1.66-3.63c1.11-1.02,2.43-1.53,3.98-1.53s2.84,.51,3.95,1.53c1.11,1.02,1.66,2.23,1.66,3.63h0Z"/>
          <path class="cls-1" d="M608.09,22.74v27.88h7.77c3.2,0,5.79-2.59,5.79-5.79h8.99v4.71c0,4.56-3.69,8.25-8.25,8.25h-23.5v-7.17h-.01V24.86c0-1.17-.95-2.12-2.12-2.12h-2.73v-6.91h8.37c3.14,0,5.69,2.55,5.69,5.69v1.22h0Z"/>
          <path class="cls-1" d="M671.19,29.29v-1.04h7.29v8.63h-7.29c-.63-2.07-2.97-3.11-7.01-3.11-2.91,0-4.36,.75-4.36,2.24,0,.65,.39,1.14,1.16,1.46s1.9,.58,3.39,.78c4.17,.48,7.45,1.18,9.85,2.09,2.4,.91,4.07,2.03,5.03,3.36,.95,1.34,1.43,2.96,1.43,4.86,0,3.1-1.15,5.51-3.46,7.24-2.31,1.73-5.44,2.59-9.4,2.59s-6.48-.71-7.86-2.13v1.43h-7.44v-10.14h7.44c.2,1.4,.94,2.5,2.21,3.31,1.27,.8,2.84,1.2,4.71,1.2s3.18-.19,4.05-.57c.88-.38,1.31-1.05,1.31-2,0-.65-.18-1.16-.55-1.53-.37-.36-1.07-.69-2.12-.97-1.05-.28-2.65-.6-4.8-.95-4.8-.69-8.25-1.81-10.35-3.35-2.1-1.54-3.16-3.62-3.16-6.23s1.09-4.77,3.28-6.3c2.18-1.53,5.07-2.3,8.64-2.3,2.88,0,5.56,.48,8.02,1.43h0Z"/>
          <path class="cls-1" d="M700.89,27.84v6.89h-5.91v12.86c0,.91,.19,1.6,.58,2.06,.38,.46,1.11,.69,2.17,.69,.87,0,1.93-.2,3.17-.62v6.53c-2.88,1.04-6.47,2.04-9.52,1.25-1.62-.42-3.08-1.42-4.06-2.77-1.82-2.5-1.41-5.77-1.41-8.7v-11.3h-4.06v-6.89h4.06v-4.57l9.08-6.72v11.29h5.91Z"/>
          <path class="cls-1" d="M764.6,28v8.83c-2.81,.17-5.03,.57-6.69,1.22-1.66,.64-2.94,1.75-3.84,3.32-.91,1.57-1.36,3.81-1.36,6.72v2.91h.04v6.78h-8.97v-6.78h0v-13.6c0-1.2-.97-2.17-2.17-2.17h-3.41v-6.89h6.18c4.13,0,7.48,3.35,7.48,7.48h0c.75-2.26,2.14-4.14,4.18-5.63,2.03-1.49,4.55-2.24,7.56-2.24,.45,0,.78,.02,1.01,.05h0Z"/>
          <path class="cls-1" d="M791.34,36.89h-6.43m14.25,20.89v-13.06m-9.19,1.36v6.92h0"/>
          <path class="cls-1" d="M800.47,50.99c-.72,0-1.31-.58-1.31-1.3v-13.25c0-.06,.01-.11,.01-.17v-14.87c0-3.19-2.59-5.77-5.78-5.77h-8.32v6.89h2.86c1.12,0,2.02,.91,2.02,2.02v7.11c-2.42-2.67-5.51-4-9.26-4-2.62,0-5,.65-7.14,1.95-2.13,1.3-3.78,3.1-4.95,5.42-1.17,2.31-1.75,4.95-1.75,7.9s.59,5.46,1.75,7.79c1.17,2.34,2.79,4.17,4.86,5.51,2.07,1.34,4.46,2,7.17,2,1.64,0,3.24-.33,4.8-.99,1.56-.66,3.06-1.64,4.53-2.96,0,1.93,1.57,3.5,3.5,3.5h10.42v-6.78h-3.43Zm-12.13-2.34c-1.13,1.45-2.69,2.17-4.68,2.17s-3.53-.74-4.66-2.21c-1.14-1.47-1.71-3.35-1.71-5.63s.57-4.12,1.71-5.57c1.14-1.46,2.67-2.19,4.6-2.19s3.56,.73,4.71,2.19c1.15,1.45,1.72,3.33,1.72,5.63s-.56,4.17-1.69,5.62h0Z"/>
          <path class="cls-1" d="M839.08,42.35c0,2.93-.75,5.57-2.26,7.93-1.5,2.35-3.54,4.19-6.1,5.52-2.56,1.33-5.38,1.99-8.44,1.99-3.25,0-6.16-.66-8.72-1.99s-4.56-3.17-5.99-5.52-2.15-5-2.15-7.93,.73-5.54,2.21-7.87c1.47-2.34,3.5-4.17,6.08-5.5s5.44-2,8.57-2,6.07,.67,8.63,2c2.56,1.34,4.56,3.17,6,5.5,1.44,2.34,2.17,4.96,2.17,7.87h0Zm-16.86,8.12c1.99,0,3.55-.71,4.68-2.14,1.13-1.43,1.69-3.48,1.69-6.15,0-2.5-.56-4.46-1.69-5.87-1.13-1.41-2.71-2.12-4.74-2.12s-3.61,.7-4.66,2.09c-1.06,1.39-1.59,3.49-1.59,6.29,0,2.37,.57,4.28,1.72,5.73,1.15,1.45,2.68,2.17,4.59,2.17h0Z"/>
          <path class="cls-1" d="M738.64,50.9h-3.19c-.89,0-1.61-.72-1.61-1.61l.02-9.28c.03-3.75-.5-7.26-3.49-9.82-2.96-2.53-6.8-2.62-10.5-2.62-7.83,0-12.99,2.31-15.49,6.95l8.23,1.37c1.71-1.57,3.67-2.35,5.88-2.35,2.03,0,3.56,.45,4.57,1.34,1.02,.9,1.52,2.09,1.52,3.59v2.35c-1.4-.65-2.64-1.12-3.71-1.39s-2.28-.41-3.64-.41c-3.92,0-7.07,.9-9.44,2.7s-3.55,4.2-3.55,7.18c0,5.37,4.61,8.77,9.67,9.18,2.02,.16,4.07-.18,5.94-.97,1.51-.64,3.64-1.41,4.68-2.74,.02-.02,.04-.05,.04-.08v-.3c0,2.03,1.65,3.68,3.68,3.68,0,0,5.54,0,5.54,0h4.81v-6.78h0Zm-14.04-1.64c-2.46,2.02-4.6,3.03-6.43,3.03-2.74,0-4.12-1.32-4.12-3.95,0-1.18,.39-2.08,1.16-2.72,.77-.63,1.89-.95,3.35-.95,1.83,0,3.84,.65,6.04,1.96v2.63h0Z"/>
        </g>
        <g>
          <path class="cls-3" d="M569.8,28.04c-.13,3.37-.41,6.07,.12,8.82,2.48-1.13,4.8-3.18,5.41-7.12,.62-3.86-.99-9.18-5.28-14.02-.27,5.03-.06,8.95-.26,12.32Z"/>
          <path class="cls-3" d="M564.64,43.68c-.61,3.81,1.04,9.11,5.46,14.14,.3-4.85,.02-8.77,.16-12.19,.07-3.42,.32-6.21-.21-8.95-2.48,1.13-4.81,3.12-5.41,6.99Z"/>
          <path class="cls-3" d="M578.89,36.5c-3.41-.06-6.15-.28-8.89,.25,1.13,2.48,3.18,4.84,7.12,5.47,3.88,.63,9.23-1.01,14.16-5.47-5.03-.37-8.98-.11-12.39-.24h0Z"/>
          <path class="cls-3" d="M563.17,31.52c-3.8-.59-9.06,1.02-14,5.26,4.86,.2,8.75-.03,12.13,.17,3.38,.14,6.13,.46,8.87-.08-1.13-2.48-3.13-4.77-6.99-5.36h0Z"/>
          <path class="cls-3" d="M575.59,30.23c-2.45,2.27-4.57,4.03-6.13,6.34,2.55,.96,5.58,1.2,8.69-1.01,3.09-2.21,5.39-6.5,6.02-11.37-3.34,1.42-6.11,3.79-8.58,6.04h0Z"/>
          <path class="cls-3" d="M560.73,37.82c-3.23,2.34-5.62,6.61-6.33,11.11,3.55-1.41,6.51-3.7,9.06-5.99,2.53-2.3,4.65-4.1,6.22-6.41-2.55-.97-5.7-1.06-8.94,1.28h0Z"/>
          <path class="cls-3" d="M575.77,42.8c-2.19-2.61-3.91-4.8-6.22-6.36-.96,2.54-1.16,5.64,1.08,8.92,2.23,3.25,6.5,5.77,11.16,6.62-1.55-3.56-3.84-6.54-6.02-9.17h0Z"/>
          <path class="cls-3" d="M568.36,27.98c-2.32-3.05-6.62-5.21-11.36-5.71,1.27,3.33,3.65,6.06,6.02,8.43,2.38,2.35,4.25,4.39,6.55,5.95,.97-2.54,1.12-5.61-1.21-8.67h0Z"/>
        </g>
      </g>
    </g>
    <g id="Capa_1-2-4" data-name="Capa 1-2">
      <g>
        <path d="M994.65,51.67c-2.33,0-4.33-.39-5.99-1.17s-2.94-1.84-3.83-3.18-1.33-2.84-1.33-4.51,.44-3.26,1.3-4.56,2.25-2.33,4.13-3.07c1.89-.74,4.35-1.11,7.38-1.11h7.93v4.94h-6.99c-2.04,0-3.43,.33-4.19,.98s-1.14,1.47-1.14,2.44c0,1.09,.44,1.95,1.3,2.58,.87,.63,2.06,.95,3.58,.95s2.73-.33,3.88-1c1.15-.67,1.98-1.66,2.5-2.96l1.33,3.91c-.63,1.88-1.77,3.31-3.44,4.29s-3.81,1.47-6.43,1.47Zm9.1-.44v-5.7l-.55-1.25v-10.21c0-1.81-.57-3.22-1.69-4.23-1.13-1.01-2.86-1.52-5.19-1.52-1.59,0-3.15,.25-4.69,.73s-2.84,1.15-3.91,1.98l-3.11-5.92c1.63-1.12,3.59-1.99,5.88-2.61,2.29-.61,4.62-.92,6.99-.92,4.55,0,8.08,1.05,10.6,3.15,2.52,2.1,3.77,5.38,3.77,9.83v16.67h-8.1Z"/>
        <path d="M1027.35,51.67l-12.75-29.71h9.08l10.6,25.57h-4.51l11-25.57h8.46l-12.8,29.71h-9.08Z"/>
        <path d="M1066.32,51.67c-3.41,0-6.41-.65-8.99-1.96-2.58-1.31-4.57-3.1-5.98-5.37-1.41-2.27-2.11-4.86-2.11-7.76s.7-5.55,2.09-7.82,3.29-4.05,5.7-5.34c2.41-1.29,5.14-1.93,8.18-1.93s5.57,.61,7.93,1.82c2.36,1.22,4.22,2.96,5.59,5.23s2.06,4.98,2.06,8.14c0,.33-.02,.7-.06,1.12s-.07,.81-.11,1.17h-24.32v-4.96h19.75l-3.34,1.47c0-1.53-.32-2.85-.95-3.98-.63-1.12-1.5-2.01-2.62-2.64s-2.41-.95-3.9-.95-2.79,.32-3.92,.95c-1.13,.64-2.01,1.53-2.64,2.67-.63,1.14-.95,2.5-.95,4.06v1.31c0,1.6,.36,3.01,1.09,4.22,.72,1.22,1.74,2.14,3.06,2.78,1.32,.64,2.87,.95,4.65,.95,1.6,0,3-.23,4.2-.71,1.21-.47,2.31-1.18,3.31-2.12l4.62,4.9c-1.37,1.53-3.1,2.7-5.18,3.51-2.08,.82-4.47,1.22-7.18,1.22h0Z"/>
        <path d="M1124.68,21.58c2.37,0,4.47,.47,6.3,1.41s3.27,2.37,4.33,4.3,1.58,4.4,1.58,7.41v16.97h-8.65v-15.65c0-2.39-.5-4.15-1.5-5.29-1-1.14-2.4-1.71-4.22-1.71-1.26,0-2.39,.29-3.38,.86-1,.57-1.77,1.43-2.33,2.56-.55,1.14-.83,2.59-.83,4.35v14.88h-8.65v-15.65c0-2.39-.49-4.15-1.47-5.29-.98-1.14-2.38-1.71-4.19-1.71-1.26,0-2.39,.29-3.38,.86-1,.57-1.77,1.43-2.33,2.56-.55,1.14-.83,2.59-.83,4.35v14.88h-8.65V21.5h8.26v8.63l-1.55-2.37c1.03-2.02,2.5-3.55,4.41-4.6,1.91-1.05,4.08-1.57,6.52-1.57,2.73,0,5.13,.69,7.18,2.07s3.41,3.48,4.08,6.31l-3.05-.83c1-2.31,2.6-4.15,4.8-5.51,2.2-1.36,4.73-2.04,7.57-2.04h0Z"/>
        <path d="M1159.73,51.67c-3.41,0-6.41-.65-8.99-1.96-2.58-1.31-4.57-3.1-5.98-5.37-1.41-2.27-2.11-4.86-2.11-7.76s.7-5.54,2.09-7.81,3.29-4.05,5.7-5.34c2.41-1.29,5.13-1.93,8.17-1.93s5.57,.61,7.93,1.82c2.36,1.22,4.22,2.96,5.59,5.23s2.06,4.98,2.06,8.14c0,.33-.02,.7-.06,1.12-.04,.42-.07,.81-.11,1.17h-24.31v-4.96h19.75l-3.34,1.47c0-1.53-.32-2.85-.95-3.97-.63-1.12-1.5-2.01-2.62-2.64-1.11-.64-2.41-.95-3.9-.95s-2.79,.32-3.92,.95c-1.13,.64-2.01,1.53-2.64,2.67-.63,1.14-.95,2.5-.95,4.06v1.31c0,1.6,.36,3,1.09,4.22,.72,1.22,1.74,2.14,3.06,2.78,1.32,.64,2.87,.95,4.64,.95,1.59,0,3-.23,4.2-.71s2.31-1.18,3.31-2.12l4.62,4.9c-1.37,1.53-3.1,2.69-5.17,3.51-2.08,.82-4.47,1.22-7.18,1.22h0Z"/>
        <path d="M1198.3,21.58c2.4,0,4.55,.47,6.45,1.41,1.9,.94,3.39,2.37,4.48,4.3s1.63,4.41,1.63,7.42v16.99h-8.79v-15.66c0-2.39-.54-4.16-1.61-5.29s-2.58-1.71-4.54-1.71c-1.39,0-2.64,.29-3.75,.86-1.11,.57-1.97,1.44-2.59,2.62s-.93,2.69-.93,4.52v14.67h-8.79V21.5h8.39v8.75l-1.58-2.48c1.09-1.99,2.65-3.51,4.68-4.58,2.03-1.07,4.34-1.6,6.93-1.6h0Z"/>
        <g>
          <path class="cls-5" d="M978.06,21.58h-19.59c-3.55,0-5.89,.26-7.81,1.09-1.57,.68-2.87,1.73-4.32,3.32-2.78,3.04-3.39,7.77-3.51,13.06h-.03v3.01c0,1.12-.3,1.98-.91,2.59-.6,.61-1.43,.91-2.47,.91-1.24,0-2.3-.33-3.17-.99l-2.11,5.42c.81,.56,1.77,.98,2.89,1.26s2.29,.42,3.5,.42c3.19,0,5.67-.8,7.45-2.39,1.78-1.59,2.67-3.97,2.67-7.12v-3.04h.02v-3.14c0-2.01,.64-3.6,1.91-4.77,1.27-1.17,3.05-1.76,5.32-1.76h4.42v8.19h7.87v-8.2h7.87v-7.87h0Z"/>
          <path class="cls-5" d="M968.69,47.05l-2.06-3.57c-.16-.28-.57-.28-.73,0l-2.06,3.57h0c-1.08,1.87,.27,4.2,2.43,4.2h0c2.16,0,3.51-2.34,2.43-4.2h0Z"/>
        </g>
        <path d="M1240.46,43.88c-.96,.73-2.13,1.09-3.49,1.09-1.15,0-2.05-.33-2.72-1-.67-.67-1-1.62-1-2.85v-5.61h0v-13.92h-8.64v6.79h-8.42v7.57h8.42v5.28c0,3.48,.98,6.09,2.94,7.85,1.96,1.76,4.7,2.63,8.21,2.63,1.33,0,2.62-.15,3.85-.46,1.24-.31,2.3-.77,3.19-1.38,0,0-2.33-5.98-2.33-5.98Z"/>
      </g>
    </g>
  </g>
</svg>