<?xml version="1.0" encoding="UTF-8"?>
<svg id="Capa_2" data-name="Capa 2" xmlns="http://www.w3.org/2000/svg" viewBox="0 0 829.51 81.18">
  <defs>
    <style>
      .cls-1 {
        fill: #18903d;
      }
    </style>
  </defs>
  <g id="Capa_1-2" data-name="Capa 1">
    <g>
      <path d="M162.6,81.09c-6.26,0-11.63-1.05-16.1-3.14-4.47-2.09-7.9-4.94-10.29-8.54-2.39-3.6-3.58-7.64-3.58-12.11s1.17-8.76,3.5-12.26c2.33-3.5,6.04-6.25,11.11-8.25,5.07-1.99,11.68-2.99,19.83-2.99h21.32v13.28h-18.79c-5.47,0-9.22,.88-11.26,2.63-2.04,1.75-3.06,3.94-3.06,6.57,0,2.92,1.17,5.23,3.5,6.93,2.33,1.7,5.54,2.55,9.62,2.55s7.35-.9,10.44-2.7c3.08-1.8,5.32-4.45,6.71-7.95l3.58,10.51c-1.69,5.06-4.77,8.9-9.24,11.53-4.47,2.63-10.24,3.94-17.29,3.94Zm24.45-1.17v-15.32l-1.49-3.36v-27.44c0-4.86-1.52-8.66-4.55-11.38-3.03-2.72-7.68-4.09-13.94-4.09-4.27,0-8.47,.66-12.6,1.97-4.13,1.31-7.63,3.09-10.51,5.33l-8.35-15.91c4.37-3.01,9.64-5.35,15.8-7.01,6.16-1.65,12.42-2.48,18.79-2.48,12.23,0,21.72,2.82,28.48,8.46,6.76,5.64,10.14,14.45,10.14,26.42v44.8h-21.77Z"/>
      <path d="M250.48,81.09L216.22,1.25h24.41l28.5,68.71h-12.13L286.56,1.25h22.74l-34.41,79.84h-24.41Z"/>
      <path d="M355.21,81.09c-9.17,0-17.22-1.76-24.15-5.27-6.93-3.51-12.29-8.32-16.07-14.42-3.79-6.1-5.68-13.05-5.68-20.86s1.87-14.91,5.61-21.01c3.74-6.1,8.85-10.88,15.33-14.35,6.48-3.46,13.81-5.2,21.98-5.2s14.98,1.64,21.31,4.9c6.33,3.27,11.34,7.95,15.03,14.05,3.69,6.1,5.53,13.39,5.53,21.88,0,.88-.05,1.88-.15,3-.1,1.12-.2,2.17-.3,3.15h-65.35v-13.32h53.08l-8.97,3.95c0-4.1-.85-7.66-2.54-10.69-1.7-3.02-4.04-5.39-7.03-7.1-2.99-1.71-6.48-2.56-10.47-2.56s-7.5,.86-10.54,2.56c-3.04,1.71-5.41,4.1-7.1,7.17-1.7,3.07-2.54,6.71-2.54,10.91v3.51c0,4.3,.97,8.08,2.92,11.34,1.94,3.27,4.68,5.76,8.22,7.47,3.54,1.71,7.7,2.56,12.49,2.56,4.29,0,8.05-.63,11.29-1.9,3.24-1.27,6.21-3.17,8.9-5.71l12.41,13.17c-3.69,4.1-8.32,7.25-13.91,9.44-5.58,2.2-12.01,3.29-19.29,3.29Z"/>
      <path d="M512.06,.24c6.36,0,12,1.26,16.92,3.78,4.92,2.52,8.8,6.37,11.63,11.55,2.83,5.18,4.25,11.82,4.25,19.92v45.61h-23.26V39.04c0-6.42-1.34-11.15-4.03-14.22-2.68-3.06-6.46-4.59-11.33-4.59-3.38,0-6.41,.77-9.09,2.3-2.68,1.53-4.77,3.83-6.26,6.89-1.49,3.06-2.24,6.96-2.24,11.7v39.98h-23.26V39.04c0-6.42-1.32-11.15-3.95-14.22-2.63-3.06-6.39-4.59-11.26-4.59-3.38,0-6.41,.77-9.09,2.3-2.68,1.53-4.77,3.83-6.26,6.89-1.49,3.06-2.24,6.96-2.24,11.7v39.98h-23.26V.01h22.21V23.2l-4.17-6.37c2.78-5.43,6.73-9.55,11.85-12.36,5.12-2.81,10.96-4.22,17.52-4.22,7.35,0,13.79,1.85,19.31,5.55,5.52,3.7,9.17,9.35,10.96,16.95l-8.2-2.22c2.68-6.22,6.98-11.15,12.9-14.81,5.91-3.65,12.7-5.48,20.35-5.48Z"/>
      <path d="M606.27,81.09c-9.17,0-17.22-1.76-24.15-5.27-6.93-3.51-12.29-8.32-16.07-14.42-3.79-6.1-5.68-13.05-5.68-20.86s1.87-14.9,5.61-21c3.74-6.1,8.84-10.88,15.33-14.34C587.78,1.74,595.1,.01,603.28,.01s14.97,1.64,21.31,4.9c6.33,3.27,11.34,7.95,15.03,14.05,3.69,6.1,5.53,13.39,5.53,21.88,0,.88-.05,1.88-.15,3-.1,1.12-.2,2.17-.3,3.15h-65.34v-13.32h53.08l-8.97,3.95c0-4.1-.85-7.66-2.54-10.68-1.7-3.02-4.04-5.39-7.03-7.1-2.99-1.71-6.48-2.56-10.47-2.56s-7.5,.86-10.54,2.56c-3.04,1.71-5.41,4.1-7.1,7.17-1.7,3.07-2.54,6.71-2.54,10.9v3.51c0,4.29,.97,8.07,2.92,11.34,1.94,3.27,4.68,5.76,8.22,7.46,3.54,1.71,7.7,2.56,12.48,2.56,4.28,0,8.05-.63,11.29-1.9,3.24-1.27,6.2-3.17,8.9-5.71l12.41,13.17c-3.69,4.1-8.32,7.24-13.9,9.44-5.58,2.2-12.01,3.29-19.29,3.29Z"/>
      <path d="M709.92,.24c6.46,0,12.24,1.26,17.34,3.78,5.1,2.52,9.11,6.37,12.04,11.56,2.93,5.19,4.39,11.84,4.39,19.94v45.66h-23.62V39.08c0-6.42-1.44-11.17-4.32-14.23-2.88-3.06-6.94-4.6-12.19-4.6-3.74,0-7.09,.77-10.07,2.3-2.98,1.53-5.3,3.88-6.97,7.04-1.67,3.16-2.5,7.22-2.5,12.16v39.43h-23.62V.01h22.56V23.52l-4.24-6.67c2.93-5.34,7.12-9.44,12.57-12.3,5.45-2.87,11.66-4.3,18.63-4.3Z"/>
      <g>
        <path class="cls-1" d="M118.02,.24h-52.65c-9.54,0-15.82,.7-21,2.94-4.21,1.82-7.7,4.64-11.61,8.92-7.48,8.16-9.1,20.89-9.42,35.11h-.07v8.08c0,3-.81,5.32-2.44,6.95-1.62,1.63-3.83,2.45-6.63,2.45-3.33,0-6.18-.88-8.52-2.65L0,76.6c2.17,1.5,4.76,2.63,7.78,3.38,3.02,.75,6.15,1.13,9.4,1.13,8.57,0,15.24-2.14,20.02-6.42,4.78-4.28,7.17-10.66,7.17-19.13v-8.18h.05v-8.43c0-5.4,1.71-9.68,5.13-12.83,3.41-3.15,8.19-4.73,14.31-4.73h11.87v22.02h21.15V21.38h21.15V.24Z"/>
        <path class="cls-1" d="M92.82,68.69l-5.54-9.59c-.44-.76-1.53-.76-1.97,0l-5.54,9.59h0c-2.9,5.02,.72,11.3,6.52,11.3h0c5.8,0,9.42-6.28,6.52-11.3h0Z"/>
      </g>
      <path d="M823.24,60.17c-2.59,1.95-5.72,2.92-9.39,2.92-3.08,0-5.52-.9-7.3-2.7-1.79-1.8-2.69-4.35-2.69-7.66v-15.07h-.02V.24h-23.23V18.48h-22.63v20.34h22.63v14.2c0,9.34,2.63,16.37,7.9,21.09,5.26,4.72,12.62,7.08,22.06,7.08,3.58,0,7.03-.41,10.36-1.24,3.33-.83,6.19-2.07,8.57-3.72l-6.26-16.06Z"/>
    </g>
  </g>
</svg>