<?xml version="1.0" encoding="UTF-8"?>
<svg id="Capa_2" data-name="Capa 2" xmlns="http://www.w3.org/2000/svg" viewBox="0 0 153.19 107.04">
  <defs>
    <style>
      .cls-1 {
        fill: #c57500;
      }

      .cls-2 {
        fill: #453011;
      }
    </style>
  </defs>
  <g id="Capa_1-2" data-name="Capa 1">
    <path class="cls-2" d="M56.43,7.15v4.48c0,.71-.23,1.5-.69,2.32-.46,.82-1.09,1.52-1.87,2-6.79,4.24-13.58,2.85-20.37,.29V51.43h0v36.88h-10.63V11.92c-6.8-2.56-13.6-3.96-20.4,.3-.71,.45-1.3,.64-1.76,.54-.46-.1-.69-.48-.69-1.2V7.08c0-.78,.23-1.6,.69-2.42,.46-.82,1.05-1.48,1.76-1.93,17.14-10.74,34.28,14.43,51.41,3.73,.78-.49,1.4-.72,1.87-.62,.46,.1,.69,.52,.69,1.31Z"/>
    <path class="cls-2" d="M87.44,49.79c-.84-2.02-2.02-3.88-3.49-5.54-1.5-1.68-3.39-3.04-5.64-4.04-2.24-1-4.98-1.51-8.12-1.51-3.06,0-6.27,.49-9.05,1.81-.77,.37-1.51,.79-2.21,1.28s-1.31,1.09-1.9,1.74c-.16,.18-.57,.52-.57,.8V24.49l-9.68-.09V88.45h9.76v-25.52c0-2.59,.3-4.86,.88-6.75,.57-1.86,1.39-3.4,2.41-4.6,1.01-1.18,2.24-2.08,3.66-2.68,1.44-.61,3.07-.91,4.85-.91,2.28,0,4.17,.43,5.64,1.29,1.46,.86,2.64,2.04,3.5,3.52,.89,1.53,1.53,3.29,1.91,5.21,.39,1.97,.58,4.04,.58,6.14v24.31h9.76v-26.73c0-1.79-.17-3.75-.51-5.81-.34-2.08-.94-4.14-1.77-6.13Z"/>
    <path class="cls-2" d="M135.23,88.45v-29.79c0-1.86-.09-3.67-.26-5.38-.18-1.78-.63-3.46-1.33-4.97-1.41-3.25-3.77-5.72-7-7.33-3.16-1.57-6.97-2.37-11.33-2.37-5.45,0-9.92,1.24-13.3,3.68-3.39,2.45-5.71,5.87-6.88,10.16l-.26,.94,9.17,2.77,.29-.96c.8-2.62,2.11-4.47,4.02-5.64,1.94-1.19,4.25-1.79,6.87-1.79,3.93,0,6.69,.89,8.21,2.65,1.26,1.46,2,3.61,2.2,6.43-1.37,.19-2.78,.38-4.25,.57-2.81,.37-5.62,.79-8.35,1.23-2.76,.45-5.29,.99-7.53,1.6-2.45,.72-4.6,1.72-6.39,2.99-1.83,1.29-3.27,2.92-4.25,4.84-.99,1.92-1.49,4.2-1.49,6.79s.65,5.15,1.92,7.39c1.28,2.25,3.19,4.09,5.69,5.45,2.48,1.35,5.58,2.04,9.21,2.04,4.64,0,8.67-1.01,11.98-3.01,1.58-.96,3-2.14,4.26-3.56v5.27h8.81Zm-9.67-23.02c-.01,.42-.02,.87-.04,1.35-.06,1.67-.27,3.2-.67,4.63-.34,1.76-1.09,3.41-2.23,4.91-1.14,1.49-2.66,2.71-4.53,3.63-1.88,.92-4.14,1.38-6.74,1.38-2.04,0-3.69-.32-4.9-.96-1.18-.62-2.06-1.43-2.61-2.41-.57-1.01-.84-2.03-.84-3.13,0-1.24,.27-2.25,.84-3.08,.59-.86,1.38-1.59,2.35-2.16,1.03-.6,2.16-1.1,3.32-1.47,1.68-.48,3.6-.89,5.68-1.22,2.11-.34,4.4-.67,6.82-.99,1.18-.15,2.36-.31,3.54-.48Z"/>
    <circle class="cls-1" cx="146.35" cy="28.64" r="6.84"/>
    <path class="cls-2" d="M141.75,39.2c-.14,0-.25,.11-.25,.25v11.47c0,2.37,0,4.74,0,7.11v7.63c0,2.49,0,4.98,0,7.47s0,4.42,0,6.63v5.12c0,1.34-.02,2.67-.05,4.01s-.06,4.14-.53,5.36c-.62,1.62-1.89,2.47-3.53,2.9-.91,.23-1.85,.34-2.78,.44-1.84,.2-3.7,.09-5.52-.19-3.75-.57-7.35-1.81-11.05-2.59-1.29-.27-2.6-.5-3.92-.61-.32-.03-3.88-.1-3.87,.05l1.07,9.13c0-.06,2.61,0,2.85,.02,.96,.07,1.92,.21,2.87,.38,2.09,.38,4.24,.86,6.25,1.52s4.13,1.15,6.26,1.43c1.34,.18,2.7,.28,4.05,.3s2.64-.11,3.97-.16c1.58-.09,3.16-.27,4.69-.66,2.55-.65,5.03-1.95,6.6-4.07,1.73-2.34,2.31-5.55,2.31-8.41,0-.69,0-3,0-3.69V39.45c0-.14-.11-.25-.25-.25h-9.17Z"/>
  </g>
</svg>