<svg width="24" height="20" viewBox="0 0 24 20" fill="none" xmlns="http://www.w3.org/2000/svg">
<g clip-path="url(#clip0_67_62)">
<path d="M17.5109 20H4.52467L7.19306 14.9767H3.52366C1.58109 14.9767 0 13.3957 0 11.4531V3.52366C0 1.58109 1.58109 0 3.52366 0H19.4477C21.3903 0 22.9714 1.58109 22.9714 3.52366V9.42711H20.2867V3.52366C20.2867 3.06151 19.9108 2.68469 19.4477 2.68469H3.52366C3.06151 2.68469 2.68469 3.06055 2.68469 3.52366V11.4531C2.68469 11.9162 3.06055 12.2921 3.52366 12.2921H9.30342C9.79817 12.2921 10.2632 12.5557 10.5173 12.9786C10.7723 13.4024 10.7858 13.9364 10.5547 14.3727L8.9918 17.3143H17.5119V19.999L17.5109 20Z" fill="#280F44"/>
<path d="M19.2732 8.31391C19.5868 8.31391 19.8936 8.46828 20.0767 8.75114C20.3634 9.19411 20.2359 9.7857 19.792 10.0724C19.6318 10.1759 19.4525 10.2248 19.2742 10.2248C18.9607 10.2248 18.6538 10.0705 18.4707 9.78762C18.184 9.34465 18.3115 8.75305 18.7555 8.46637C18.9156 8.36281 19.0949 8.31391 19.2732 8.31391ZM19.2732 5.53334C18.5532 5.53334 17.8532 5.74045 17.2473 6.13068C16.4092 6.67146 15.832 7.50755 15.6211 8.48267C15.4111 9.45779 15.5933 10.4569 16.135 11.2958C16.8263 12.3659 17.9999 13.0054 19.2742 13.0054C19.9943 13.0054 20.6942 12.7983 21.3002 12.4081C22.1382 11.8673 22.7154 11.0312 22.9263 10.0561C23.1363 9.08001 22.9541 8.08188 22.4124 7.24291C21.7211 6.17287 20.5475 5.53334 19.2732 5.53334Z" fill="#9C0C35"/>
</g>
<defs>
<clipPath id="clip0_67_62">
<rect width="23.0117" height="20" fill="white"/>
</clipPath>
</defs>
</svg>
