<svg width="17" height="20" viewBox="0 0 17 20" fill="none" xmlns="http://www.w3.org/2000/svg">
<g clip-path="url(#clip0_67_59)">
<path d="M8.4088 17.9337C9.09357 18.2069 9.84621 18.3375 10.6023 18.3375C12.1488 18.3375 13.7108 17.7902 14.7315 16.7961C16.2514 15.3157 16.4731 12.941 15.2479 11.2724C14.7392 10.5799 14.1438 10.0369 13.4771 9.65719C13.2546 9.53089 13.0192 9.43208 12.758 9.35647C12.3731 9.24478 11.9847 9.19924 11.6024 9.17089L11.5439 8.96469L11.3085 9.01022L11.3438 9.15457C11.2871 9.15113 11.2303 9.14769 11.1745 9.14512C10.7037 9.11934 10.2595 9.09442 9.84621 8.98101C9.17948 8.79715 8.59696 8.44746 8.20517 7.99553C7.43793 7.10972 7.37606 5.79345 8.05911 4.86554C8.74732 3.92989 10.1572 3.4204 11.4108 3.65581C12.6746 3.89295 13.6971 4.86038 13.8414 5.9567L13.8809 6.25483L16.193 6.43698L16.1612 6.00739C16.0332 4.27184 14.6877 2.66088 12.813 1.99931C10.9382 1.33688 8.66054 1.66853 7.14495 2.82327C5.62935 3.978 4.97809 5.87937 5.52367 7.55391C6.06925 9.22846 7.77558 10.5645 9.76974 10.8781C10.0352 10.9202 10.3007 10.9442 10.5568 10.9674C10.9021 10.9984 11.2286 11.0284 11.5397 11.0972C12.6849 11.3515 13.6352 12.2261 13.8508 13.2236C14.0656 14.222 13.5433 15.3304 12.5793 15.9189C11.6153 16.5074 9.9201 16.4481 8.88393 16.4481" fill="#280F44"/>
<path d="M10.9133 16.2291H2.73816V18.3375H10.9133V16.2291Z" fill="#280F44"/>
<path d="M3.34826 14.4875C3.62922 14.4875 3.90415 14.6258 4.06826 14.8793C4.32515 15.2762 4.21088 15.8063 3.81308 16.0632C3.6696 16.156 3.50893 16.1998 3.34912 16.1998C3.06817 16.1998 2.79323 16.0615 2.62913 15.8081C2.37223 15.4111 2.48651 14.881 2.88431 14.6241C3.02779 14.5313 3.18846 14.4875 3.34826 14.4875ZM3.34826 11.9959C2.70302 11.9959 2.07582 12.1815 1.53282 12.5311C0.781891 13.0157 0.264665 13.7649 0.0756451 14.6387C-0.112515 15.5125 0.0507288 16.4078 0.536166 17.1596C1.15563 18.1184 2.20727 18.6915 3.34912 18.6915C3.99437 18.6915 4.62157 18.5059 5.16457 18.1562C5.91549 17.6716 6.43272 16.9224 6.62174 16.0486C6.8099 15.174 6.64666 14.2796 6.16122 13.5278C5.54175 12.5689 4.49011 11.9959 3.34826 11.9959Z" fill="#9C0C35"/>
<path d="M11.745 0H9.72852V20H11.745V0Z" fill="#280F44"/>
</g>
<defs>
<clipPath id="clip0_67_59">
<rect width="16.1921" height="20" fill="white"/>
</clipPath>
</defs>
</svg>
