<svg width="18" height="20" viewBox="0 0 18 20" fill="none" xmlns="http://www.w3.org/2000/svg">
<g clip-path="url(#clip0_67_63)">
<path d="M17.9034 8.37776C17.9034 3.66713 14.2538 0.354262 9.55717 0.0482287L9.11347 0.0192915V0L8.96615 0.00964574L8.81884 0V0.0192915L8.37513 0.0482287C3.67853 0.354262 0 4.28446 0 8.99509C0 13.7057 3.67853 17.6359 8.37425 17.942L8.81796 17.9709V17.9902L8.96527 17.9805L9.11259 17.9902V17.9709L9.5563 17.942C9.89916 17.92 10.2403 17.8779 10.5779 17.8157L10.1271 18.6294L12.2396 19.9991L13.5944 17.5175L14.7746 15.4893L10.7664 12.6526L9.59751 14.6834L10.6173 15.2701C10.4779 15.3069 10.3367 15.3385 10.1947 15.3657V15.3604L9.44844 15.4174C9.28622 15.4297 9.12048 15.4358 8.95475 15.4358C8.21115 15.4358 7.48246 15.3122 6.78972 15.0693L6.161 14.8483C5.50509 14.5344 4.9053 14.1082 4.37916 13.5821C4.04156 13.2436 3.74167 12.8709 3.48737 12.4719L3.47773 12.4579C2.82445 11.4276 2.47895 10.2297 2.47895 8.99509C2.47895 7.26236 3.15328 5.63399 4.37916 4.4081C4.50982 4.27745 4.64749 4.15118 4.7913 4.02929C4.79919 4.02227 4.80796 4.01526 4.82462 4.0021C5.3034 3.60312 5.83216 3.2778 6.39775 3.03402L6.80901 2.89109C7.49649 2.6517 8.21817 2.53069 8.95563 2.53069C9.12399 2.53069 9.29323 2.53683 9.45984 2.54998L10.0254 2.59383C10.3946 2.65433 10.7568 2.74553 11.1075 2.86829C12.03 3.18923 12.8525 3.70747 13.5531 4.4081C14.4563 5.31129 15.0675 6.44423 15.3209 7.68415C15.3358 7.75693 15.3499 7.82971 15.3622 7.90688C15.3657 7.92967 15.37 7.95247 15.3736 7.9779C15.3823 8.03227 15.3902 8.08664 15.3972 8.141L15.8322 8.08401" fill="#280F44"/>
<path d="M14.48 7.09576C14.7668 7.09576 15.0474 7.23694 15.2148 7.49562C15.477 7.90074 15.3604 8.44178 14.9544 8.70397C14.808 8.79867 14.644 8.8434 14.4809 8.8434C14.1941 8.8434 13.9135 8.70222 13.7461 8.44354C13.4839 8.03841 13.6005 7.49738 14.0065 7.23519C14.1529 7.14048 14.3169 7.09576 14.48 7.09576ZM14.48 4.5528C13.8215 4.5528 13.1813 4.7422 12.6272 5.0991C11.8608 5.59366 11.3329 6.3583 11.14 7.25009C10.9479 8.14189 11.1145 9.0556 11.61 9.82288C12.2422 10.8015 13.3155 11.3864 14.4809 11.3864C15.1394 11.3864 15.7796 11.197 16.3337 10.8401C17.1001 10.3455 17.628 9.58086 17.8209 8.68906C18.013 7.79639 17.8464 6.88356 17.3509 6.11628C16.7187 5.13768 15.6454 4.5528 14.48 4.5528Z" fill="#9C0C35"/>
</g>
<defs>
<clipPath id="clip0_67_63">
<rect width="17.9034" height="20" fill="white"/>
</clipPath>
</defs>
</svg>
