<svg width="22" height="20" viewBox="0 0 22 20" fill="none" xmlns="http://www.w3.org/2000/svg">
<g clip-path="url(#clip0_67_64)">
<path d="M19.3714 3.7575C19.3714 3.26689 19.3284 2.78761 19.2467 2.3214C19.1504 1.77676 18.6767 1.38375 18.1298 1.38375C17.4944 1.38375 16.994 1.90748 16.994 2.52967C16.994 2.58718 16.9983 2.6447 17.0069 2.70308C17.0491 2.98542 17.0705 3.27474 17.0705 3.57015C17.0705 4.58623 16.8109 5.54043 16.3569 6.3709L13.3347 1.05C12.5411 -0.347764 10.5524 -0.35125 9.75362 1.0439L6.53623 6.66457C5.97564 5.76962 5.64977 4.70822 5.64977 3.57015C5.64977 3.27474 5.67127 2.98542 5.7134 2.70221C5.81657 2.00769 5.28436 1.38375 4.59049 1.38375C4.31794 1.38375 4.06257 1.48222 3.86396 1.64866C3.66534 1.8151 3.52262 2.04865 3.47447 2.3214C3.39279 2.78761 3.3498 3.26689 3.3498 3.7575C3.3498 5.74086 4.05226 7.55777 5.21729 8.96773L0.0223549 17.1033L0.0189157 17.1016V17.1094L0 17.1425L0.0189157 17.153V19.3655L1.90447 18.2623L1.93284 18.2789L6.91712 10.5128C8.18877 11.3729 9.71665 11.8757 11.3606 11.8757C13.106 11.8757 14.7207 11.3092 16.0371 10.3481L19.4367 16.3818L21.2948 15.1113L17.6948 8.72635C18.7454 7.35299 19.3714 5.62932 19.3714 3.7575ZM11.3606 9.35726C10.1706 9.35726 9.06577 8.98778 8.15094 8.35687L11.2488 2.94534C11.3795 2.7179 11.7037 2.71877 11.8326 2.94534L14.8075 8.18258C13.8497 8.91893 12.6555 9.35639 11.3606 9.35639V9.35726Z" fill="#280F44"/>
<path d="M18.4342 15.7361C18.7153 15.7361 18.9905 15.8764 19.1547 16.1335C19.4118 16.5361 19.2974 17.0738 18.8993 17.3343C18.7558 17.4284 18.595 17.4729 18.4351 17.4729C18.1539 17.4729 17.8788 17.3326 17.7145 17.0755C17.4575 16.6729 17.5718 16.1352 17.9699 15.8747C18.1135 15.7806 18.2743 15.7361 18.4342 15.7361ZM18.4342 13.209C17.7885 13.209 17.1608 13.3972 16.6174 13.7519C15.866 14.2434 15.3484 15.0033 15.1592 15.8895C14.9709 16.7757 15.1343 17.6838 15.6201 18.4463C16.24 19.4188 17.2924 20 18.4351 20C19.0808 20 19.7084 19.8118 20.2518 19.4571C21.0033 18.9656 21.5209 18.2057 21.71 17.3195C21.8983 16.4324 21.735 15.5253 21.2492 14.7628C20.6293 13.7903 19.5769 13.209 18.4342 13.209Z" fill="#9C0C35"/>
</g>
<defs>
<clipPath id="clip0_67_64">
<rect width="21.7857" height="20" fill="white"/>
</clipPath>
</defs>
</svg>
